<?xml version="1.0" encoding="UTF-8" standalone="no"?>
<!DOCTYPE svg PUBLIC "-//W3C//DTD SVG 1.1//EN"
 "http://www.w3.org/Graphics/SVG/1.1/DTD/svg11.dtd">
<!-- Generated by graphviz version 2.26.3 (20100126.1600)
 -->
<!-- Title: ecto Pages: 1 -->
<svg width="314pt" height="85pt"
 viewBox="0.00 0.00 314.00 85.00" xmlns="http://www.w3.org/2000/svg" xmlns:xlink="http://www.w3.org/1999/xlink">
<g id="graph1" class="graph" transform="scale(1 1) rotate(0) translate(4 81)">
<title>ecto</title>
<polygon fill="white" stroke="white" points="-4,5 -4,-81 311,-81 311,5 -4,5"/>
<!-- 0 -->
<g id="node1" class="node"><title>0</title>
<polygon fill="lightblue" stroke="lightblue" points="8,-33 8,-50 33,-50 33,-33 8,-33"/>
<polygon fill="none" stroke="black" points="8,-33 8,-50 33,-50 33,-33 8,-33"/>
<text text-anchor="start" x="13.5" y="-40.1" font-family="Times Roman,serif" font-size="6.00">start</text>
<polygon fill="lightblue" stroke="lightblue" points="33,-33 33,-50 56,-50 56,-33 33,-33"/>
<polygon fill="none" stroke="black" points="33,-33 33,-50 56,-50 56,-33 33,-33"/>
<text text-anchor="start" x="38" y="-40.1" font-family="Times Roman,serif" font-size="6.00">step</text>
<polygon fill="khaki" stroke="khaki" points="8,-5 8,-33 56,-33 56,-5 8,-5"/>
<polygon fill="none" stroke="black" points="8,-5 8,-33 56,-33 56,-5 8,-5"/>
<text text-anchor="start" x="26.5" y="-14.8" font-family="Times Roman,serif" font-size="18.00">e</text>
<polygon fill="#ff6a6a" stroke="#ff6a6a" points="56,-5 56,-33 76,-33 76,-5 56,-5"/>
<polygon fill="none" stroke="black" points="56,-5 56,-33 76,-33 76,-5 56,-5"/>
<text text-anchor="start" x="61" y="-17.6" font-family="Times Roman,serif" font-size="6.00">out</text>
</g>
<!-- 1 -->
<g id="node2" class="node"><title>1</title>
<text text-anchor="start" x="108" y="-62.1" font-family="Times Roman,serif" font-size="6.00"> </text>
<polygon fill="springgreen" stroke="springgreen" points="101,-28 101,-56 118,-56 118,-28 101,-28"/>
<polygon fill="none" stroke="black" points="101,-28 101,-56 118,-56 118,-28 101,-28"/>
<text text-anchor="start" x="106.5" y="-40.6" font-family="Times Roman,serif" font-size="6.00">in</text>
<polygon fill="khaki" stroke="khaki" points="118,-28 118,-56 138,-56 138,-28 118,-28"/>
<polygon fill="none" stroke="black" points="118,-28 118,-56 138,-56 138,-28 118,-28"/>
<text text-anchor="start" x="123" y="-37.8" font-family="Times Roman,serif" font-size="18.00">c</text>
<polygon fill="#ff6a6a" stroke="#ff6a6a" points="138,-28 138,-56 158,-56 158,-28 138,-28"/>
<polygon fill="none" stroke="black" points="138,-28 138,-56 158,-56 158,-28 138,-28"/>
<text text-anchor="start" x="143" y="-40.6" font-family="Times Roman,serif" font-size="6.00">out</text>
</g>
<!-- 0&#45;&gt;1 -->
<g id="edge2" class="edge"><title>0:o_out&#45;&gt;1:i_in</title>
<path fill="none" stroke="black" d="M76,-19C86.6158,-19 87.1985,-30.3708 91.8572,-37.1223"/>
<polygon fill="black" stroke="black" points="90.5296,-40.3809 101,-42 93.8246,-34.2049 90.5296,-40.3809"/>
</g>
<!-- 3 -->
<g id="node4" class="node"><title>3</title>
<text text-anchor="start" x="267" y="-41.1" font-family="Times Roman,serif" font-size="6.00"> </text>
<polygon fill="springgreen" stroke="springgreen" points="261,-19 261,-35 276,-35 276,-19 261,-19"/>
<polygon fill="none" stroke="black" points="261,-19 261,-35 276,-35 276,-19 261,-19"/>
<text text-anchor="start" x="266.5" y="-25.6" font-family="Times Roman,serif" font-size="6.00">a</text>
<polygon fill="khaki" stroke="khaki" points="276,-3 276,-35 297,-35 297,-3 276,-3"/>
<polygon fill="none" stroke="black" points="276,-3 276,-35 297,-35 297,-3 276,-3"/>
<text text-anchor="start" x="281" y="-14.8" font-family="Times Roman,serif" font-size="18.00">o</text>
<polygon fill="springgreen" stroke="springgreen" points="261,-3 261,-19 276,-19 276,-3 261,-3"/>
<polygon fill="none" stroke="black" points="261,-3 261,-19 276,-19 276,-3 261,-3"/>
<text text-anchor="start" x="266.5" y="-9.6" font-family="Times Roman,serif" font-size="6.00">b</text>
</g>
<!-- 0&#45;&gt;3 -->
<g id="edge6" class="edge"><title>0:o_out&#45;&gt;3:i_b</title>
<path fill="none" stroke="black" d="M76,-19C83.235,-19 84.8067,-16.776 92,-16 163.208,-8.31816 183.939,-10.7376 250.791,-10.9813"/>
<polygon fill="black" stroke="black" points="250.994,-14.4816 261,-11 251.006,-7.48158 250.994,-14.4816"/>
</g>
<!-- 2 -->
<g id="node3" class="node"><title>2</title>
<text text-anchor="start" x="189" y="-63.1" font-family="Times Roman,serif" font-size="6.00"> </text>
<polygon fill="lightblue" stroke="lightblue" points="199,-56 199,-73 216,-73 216,-56 199,-56"/>
<polygon fill="none" stroke="black" points="199,-56 199,-73 216,-73 216,-56 199,-56"/>
<text text-anchor="start" x="205.5" y="-63.1" font-family="Times Roman,serif" font-size="6.00">n</text>
<polygon fill="springgreen" stroke="springgreen" points="182,-28 182,-56 199,-56 199,-28 182,-28"/>
<polygon fill="none" stroke="black" points="182,-28 182,-56 199,-56 199,-28 182,-28"/>
<text text-anchor="start" x="187.5" y="-40.6" font-family="Times Roman,serif" font-size="6.00">in</text>
<polygon fill="khaki" stroke="khaki" points="199,-28 199,-56 216,-56 216,-28 199,-28"/>
<polygon fill="none" stroke="black" points="199,-28 199,-56 216,-56 216,-28 199,-28"/>
<text text-anchor="start" x="204" y="-37.8" font-family="Times Roman,serif" font-size="18.00">t</text>
<polygon fill="#ff6a6a" stroke="#ff6a6a" points="216,-28 216,-56 236,-56 236,-28 216,-28"/>
<polygon fill="none" stroke="black" points="216,-28 216,-56 236,-56 236,-28 216,-28"/>
<text text-anchor="start" x="221" y="-40.6" font-family="Times Roman,serif" font-size="6.00">out</text>
</g>
<!-- 1&#45;&gt;2 -->
<g id="edge4" class="edge"><title>1:o_out&#45;&gt;2:i_in</title>
<path fill="none" stroke="black" d="M158,-42C164.333,-42 167.846,-42 171.888,-42"/>
<polygon fill="black" stroke="black" points="172,-45.5001 182,-42 172,-38.5001 172,-45.5001"/>
</g>
<!-- 2&#45;&gt;3 -->
<g id="edge8" class="edge"><title>2:o_out&#45;&gt;3:i_a</title>
<path fill="none" stroke="black" d="M236,-42C244.503,-42 247.032,-35.54 251.428,-31.0988"/>
<polygon fill="black" stroke="black" points="253.185,-34.1539 261,-27 250.43,-27.7191 253.185,-34.1539"/>
</g>
</g>
</svg>
