<?xml version="1.0" encoding="UTF-8" standalone="no"?>
<!-- Created with Inkscape (http://www.inkscape.org/) -->

<svg
   xmlns:dc="http://purl.org/dc/elements/1.1/"
   xmlns:cc="http://creativecommons.org/ns#"
   xmlns:rdf="http://www.w3.org/1999/02/22-rdf-syntax-ns#"
   xmlns:svg="http://www.w3.org/2000/svg"
   xmlns="http://www.w3.org/2000/svg"
   xmlns:sodipodi="http://sodipodi.sourceforge.net/DTD/sodipodi-0.dtd"
   xmlns:inkscape="http://www.inkscape.org/namespaces/inkscape"
   inkscape:export-ydpi="20.639999"
   inkscape:export-xdpi="20.639999"
   inkscape:export-filename="/home/erublee/workspace_ecto/ecto/doc/source/images/ecto_logo.png"
   sodipodi:docname="ecto.svg"
   inkscape:version="0.48.1 r9760"
   version="1.1"
   id="svg2"
   height="1069.5205"
   width="3488.1184">
  <sodipodi:namedview
     id="base"
     pagecolor="#ffffff"
     bordercolor="#666666"
     borderopacity="1.0"
     inkscape:pageopacity="0.0"
     inkscape:pageshadow="2"
     inkscape:zoom="0.35"
     inkscape:cx="2889.5939"
     inkscape:cy="620.1219"
     inkscape:document-units="px"
     inkscape:current-layer="g7815"
     showgrid="false"
     inkscape:window-width="1920"
     inkscape:window-height="1005"
     inkscape:window-x="0"
     inkscape:window-y="25"
     inkscape:window-maximized="1"
     showguides="true"
     inkscape:guide-bbox="true"
     fit-margin-top="100"
     fit-margin-left="100"
     fit-margin-right="100"
     fit-margin-bottom="100" />
  <defs
     id="defs4">
    <linearGradient
       id="linearGradient9216">
      <stop
         style="stop-color:#e5ff80;stop-opacity:1;"
         offset="0"
         id="stop9218" />
      <stop
         id="stop9224"
         offset="0.530303"
         style="stop-color:#e5ff80;stop-opacity:0.49803922;" />
      <stop
         style="stop-color:#e5ff80;stop-opacity:0;"
         offset="1"
         id="stop9220" />
    </linearGradient>
  </defs>
  <metadata
     id="metadata7">
    <rdf:RDF>
      <cc:Work
         rdf:about="">
        <dc:format>image/svg+xml</dc:format>
        <dc:type
           rdf:resource="http://purl.org/dc/dcmitype/StillImage" />
        <dc:title></dc:title>
      </cc:Work>
    </rdf:RDF>
  </metadata>
  <g
     id="layer1"
     inkscape:groupmode="layer"
     inkscape:label="Layer 1"
     transform="translate(17.036916,39.137817)" />
  <g
     id="g7815"
     transform="translate(17.036916,91.5)">
    <rect
       style="fill:#ffffff;fill-opacity:1;stroke:none"
       id="rect3065"
       width="3974.2859"
       height="1340"
       x="-142.75121"
       y="-179.12234" />
    <path
       inkscape:connector-curvature="0"
       id="path3042"
       d="m 860.08241,468.51018 c -19.54028,-3.63718 2.0605,21.30812 -18.36814,25.8787 -7.40102,13.0673 -24.14078,14.57639 -32.67436,16.2884 1.15914,13.16937 -15.28931,21.80683 -22.11602,32.52952 -4.54055,8.22459 -27.40434,25.75953 -28.11841,16.81262 -7.70977,-7.08349 -26.63262,-5.65601 -37.29863,-12.13051 -13.23706,-7.09426 -16.55816,-19.45109 -16.55349,-33.57297 -10.4713,-1.32898 -22.92912,-17.34103 -25.54046,-29.14484 -3.63716,-6.92135 -7.19526,-39.82745 0.33126,-19.74191 10.31282,-8.03102 16.77839,-24.29341 29.51855,-27.13105 23.13657,4.26167 8.91847,-8.64749 19.27587,-21.641 5.73762,-13.65306 12.34872,-26.1952 29.03722,-25.92054 6.1835,-8.15984 -9.39089,-29.77069 11.47343,-30.62432 16.03409,-9.76224 -8.53155,26.2123 16.58082,16.51445 14.59891,-0.2875 28.47539,0.92043 36.06247,15.1475 14.25742,-9.36594 8.37387,18.86565 12.74756,28.22152 3.46345,13.78457 17.97785,22.50731 25.72743,34.33039 -0.98725,2.74063 -1.9745,5.48125 -2.96175,8.22188"
       style="fill:#000055;fill-opacity:1;stroke:none" />
    <path
       inkscape:connector-curvature="0"
       id="path3038"
       d="m 298.96039,456.98883 c -7.7486,9.50364 -28.99833,15.37954 -27.93349,27.25135 10.8267,15.03783 -16.72061,14.7022 -25.09968,22.04578 16.20146,12.02646 -13.70828,14.81085 -22.8279,17.51113 -16.29133,6.59079 -31.7429,18.54906 -42.05826,33.18877 -14.44466,-6.33423 -12.51597,-26.15141 -22.94379,-32.48229 -15.36784,-0.26594 -19.89255,-12.26756 -28.52934,-23.83334 -3.3005,-16.39376 -20.04609,-16.58209 -33.097329,-21.22324 -12.818232,-2.74105 -2.577708,-24.16632 -7.673988,-35.36966 1.418609,-16.00881 14.066357,-18.10249 26.079187,-22.48239 10.15946,-6.69832 16.67715,-31.57106 30.22086,-21.38023 12.86485,7.74977 9.38349,-21.99176 22.94273,-25.71194 9.93804,-18.80659 15.63686,-3.18336 32.56162,-6.35122 10.39147,5.12754 15.26969,21.29655 22.3668,31.43197 15.664,8.74592 -11.54354,34.64555 3.85068,31.11869 14.11977,-4.76554 28.11575,-8.72749 39.6206,3.48086 9.80936,9.65059 21.70704,18.54669 16.36112,33.83097 l -0.019,0.33473"
       style="fill:#000055;fill-opacity:1;stroke:none" />
    <path
       inkscape:connector-curvature="0"
       id="path3032"
       d="m 284.66024,182.02641 c 9.29486,17.51145 -15.86572,14.7262 -25.99342,20.79639 -17.66503,4.10806 -20.33841,24.80214 -21.85383,40.16397 3.50672,27.8242 -15.07511,-13.77461 -20.35686,2.91731 -8.10963,12.61814 -12.19705,25.73295 -26.29904,22.92563 -11.31602,9.56339 -25.0817,1.54065 -37.88784,0.40644 -3.60012,-16.49423 -20.21127,-20.37177 -33.07098,-27.88705 1.91687,-16.6137 -12.79627,-28.59251 -19.09344,-42.91691 11.60373,-7.29332 -6.601394,-24.69317 7.40768,-29.80857 1.67964,-12.69135 -5.96554,-32.88586 13.83297,-30.99794 13.70965,-9.38958 27.61733,0.47662 32.78732,5.95428 -0.68927,-15.25971 12.0884,-22.89241 21.97433,-32.16285 1.63718,-12.265778 -10.0401,-32.233104 8.01307,-35.003292 20.81443,-14.470579 10.23558,1.615533 10.14729,14.83877 7.14812,14.804562 18.71479,16.910632 32.50267,21.497852 19.74959,5.39932 19.11225,30.61121 31.93138,43.92862 7.65743,11.74189 27.20383,-2.97148 37.82574,9.31644"
       style="fill:#000055;fill-opacity:1;stroke:none" />
    <path
       inkscape:connector-curvature="0"
       id="path3034"
       d="m 570.95394,180.05009 c 18.39984,16.27343 -4.32168,14.83743 -18.07524,17.2636 -16.09219,0.57384 -28.5983,4.60884 -18.98209,22.34466 1.17249,13.09392 -26.78729,-0.1556 -32.53806,10.99725 -8.95817,10.08896 -15.25066,24.02766 -24.15554,33.00991 6.49899,-23.94664 -15.79349,-10.23909 -15.49014,-21.56277 1.63816,-13.89076 7.58468,-31.34608 -13.39145,-26.52673 -13.79856,2.01367 -28.14752,-7.33021 -32.54744,-18.24372 -9.03254,-4.95039 -18.78831,-32.67878 -27.2818,-20.65192 -9.28842,9.67685 10.37451,-21.21205 6.08744,-27.01091 -13.61746,-9.09198 14.79953,-17.8942 15.47145,-31.24302 2.23565,-20.88776 22.54141,-9.61832 25.74095,-20.664552 2.20811,-13.861566 1.08412,-32.835649 19.82753,-21.326631 13.76507,6.964792 21.87405,-1.29823 36.26718,-4.685779 17.81193,16.457631 36.17038,32.125042 51.69009,50.935012 -0.77101,4.9264 29.95609,3.35885 23.26302,20.0513 0.174,14.49356 2.01689,28.1302 16.11133,35.47609 l 1.70337,1.51879 1.00431,0.89548"
       style="fill:#000055;fill-opacity:1;stroke:none" />
    <path
       inkscape:connector-curvature="0"
       id="path3036"
       d="m 875.47487,179.10119 c -5.26762,13.13342 -11.70891,25.21528 -25.64191,30.58481 -8.90505,11.05301 -27.55125,5.78255 -30.93125,9.88602 1.28422,18.66098 -10.23039,22.53507 -26.72458,20.65608 -18.12336,-2.12 -20.86394,20.13939 -23.31331,33.40993 -3.80933,22.50335 -2.40151,-12.607 -9.54841,-18.71381 -5.69061,-13.85205 -10.84859,-28.11956 -25.01683,-35.35917 -3.84793,-12.93486 -14.33128,-24.2936 -27.75688,-24.83092 -11.22313,7.63954 -29.59992,8.94452 -33.34201,-6.36012 -3.49258,-15.03101 -5.57242,-29.33029 13.02201,-32.9211 8.50796,-7.87426 33.81132,-1.06443 30.7073,-15.43251 -10.72321,-21.9298 9.97821,-14.3547 18.67536,-17.33062 -5.63586,-14.21162 -5.24043,-27.614277 4.74046,-39.731261 3.18067,-17.83061 21.45405,-7.001375 30.33296,-0.0223 10.46853,15.910218 26.36491,-3.400493 37.17269,6.164925 13.86281,6.763369 17.70195,21.339806 23.55995,34.342616 -17.44492,11.99069 15.9212,7.58736 20.174,19.13732 15.49311,7.61539 16.01859,24.31034 22.02433,38.61875"
       style="fill:#000055;fill-opacity:1;stroke:none" />
    <path
       inkscape:connector-curvature="0"
       id="path3056"
       d="m 293.79654,740.03443 c -6.60057,10.4161 -4.17426,35.87071 -21.76954,27.96996 -7.32644,10.9143 -15.18419,21.49564 -29.83622,21.76737 -13.94258,3.0569 -32.81576,1.73725 -28.09185,21.36308 1.60796,20.28208 -12.83529,35.44049 -29.07021,45.12735 -7.26258,-7.28761 -11.8432,-24.42587 -17.83078,-35.59425 -4.72407,-13.81874 -25.75731,-13.00125 -14.56138,-31.31831 -13.86519,-3.19491 -32.31858,-2.29467 -28.04057,-21.68306 2.30726,-26.11921 -13.32943,11.7378 -22.93533,-7.09752 -11.444979,-8.16058 -29.135024,-15.52613 -10.716058,-27.4886 3.770191,-11.94543 37.177658,0.85341 27.299558,-13.17304 -9.93008,-11.67512 8.74922,-23.96409 12.12172,-35.92463 14.22988,2.26933 18.31035,-22.1497 29.99093,-24.03224 13.93728,12.2048 22.37287,-6.58126 37.41339,-4.02508 11.87391,0.51762 33.14803,-9.29054 36.40504,7.24446 7.82926,11.93082 4.28343,28.42332 19.93659,31.66 12.39066,8.68355 29.7657,5.9758 20.89902,24.43167 -3.43153,8.67402 8.96799,13.65492 12.73887,20.2806"
       style="fill:#000055;fill-opacity:1;stroke:none" />
    <path
       inkscape:connector-curvature="0"
       id="path3058"
       d="m 576.81002,739.44207 c 2.84377,16.39052 -6.57454,25.62438 -20.45436,32.25432 -16.42787,6.63792 4.49989,22.92854 -17.13728,29.92084 -4.53847,7.84216 -29.68483,17.62826 -21.60863,23.13199 -14.27127,5.72491 -32.23125,6.69115 -37.98281,23.40698 -12.9946,22.14158 0.64206,-10.17257 -6.68517,-17.21866 -6.06245,-13.70905 -22.44563,-14.16641 -34.3145,-20.42008 7.37179,-15.62208 -1.30206,-24.81573 -14.19896,-32.88521 -13.1964,-15.35881 -35.37903,-14.35719 -53.11317,-21.46571 19.28756,-3.00148 32.80424,-17.0285 47.8009,-28.22792 -3.35333,-21.46876 11.80774,-17.13283 26.94723,-12.82696 8.27035,-7.28948 13.90527,-22.94122 26.75457,-28.71619 2.69325,-8.63163 15.98252,-36.3225 13.05072,-31.20487 -16.13304,13.98294 11.38922,15.94137 20.1507,23.06731 12.97403,5.76709 22.56943,22.83876 33.73389,4.83563 14.95099,-14.64223 -3.73667,21.0459 14.21321,24.18008 9.688,10.52715 19.91931,20.50273 30.5598,30.0629 -2.88027,0.77223 -5.76054,1.54447 -8.64081,2.3167"
       style="fill:#000055;fill-opacity:1;stroke:none" />
    <path
       inkscape:connector-curvature="0"
       id="path3060"
       d="m 876.37985,753.117 c -8.71388,11.28281 -15.76936,22.55113 -18.39279,35.38149 -7.78825,10.84829 -12.68868,31.74089 -29.80867,27.14718 -15.40563,0.51455 -29.64014,15.15068 -42.57147,17.90931 -11.94846,3.97925 -23.93128,24.38284 -35.84784,13.11727 -14.24804,-2.51484 -15.30308,-10.5307 -26.34832,-20.53724 -7.66335,-6.64366 -38.87683,-6.88316 -24.82054,-19.4332 0.23902,-10.06758 -15.56426,-20.82517 -14.20619,-34.78636 0.10161,-9.36419 -19.45355,-37.08441 -7.33728,-26.59263 10.16582,-4.81999 37.86212,0.69156 26.4647,-16.83668 -12.14452,-17.25149 11.32853,-15.47574 19.96905,-25.6594 14.24649,-9.31824 19.31852,-13.93005 24.81921,-25.61857 8.00522,-12.52353 16.27768,-23.03221 32.22306,-22.02358 11.34089,6.93526 18.77629,21.5241 13.45887,35.6652 5.2063,8.45075 25.95537,7.67741 37.25253,10.42331 22.43776,-9.2814 8.40413,12.13694 5.65563,24.05604 5.67552,7.6806 18.63393,12.05977 20.4128,22.17657"
       style="fill:#000055;fill-opacity:1;stroke:none" />
    <g
       style="fill:none;stroke:#00d811;stroke-opacity:1"
       id="g7792">
      <g
         style="fill:none;stroke:#00d811;stroke-opacity:1"
         id="g7787">
        <path
           sodipodi:nodetypes="ccccccccccccccccc"
           inkscape:connector-curvature="0"
           style="fill:none;stroke:#00d811;stroke-width:19;stroke-linecap:butt;stroke-linejoin:miter;stroke-miterlimit:4;stroke-opacity:1;stroke-dasharray:none"
           d="m 510.26884,464.35092 175.82883,-6.19784 52.1548,29.53896 22.01343,45.82094 -22.01343,-45.82094 48.78973,-3.20785 38.40216,12.2889 -38.40216,-12.2889 29.77686,-18.57789 -29.77686,18.57789 -48.78973,3.20785 -52.1548,-29.53896 45.49484,-33.2187 22.61957,-34.475 -22.61957,34.475 -45.49484,33.2187 -173.80853,3.16738"
           id="path7764" />
        <path
           id="path7720"
           d="m 410.73399,452.44152 -148.38569,-0.0625 -81.98798,-38.12292 81.98798,38.12292 -92.65538,64.11052 -41.77542,67.18854 41.77542,-67.18854 92.65538,-64.11052 148.38569,0.0625"
           style="fill:none;stroke:#00d811;stroke-width:19.96100043999999940;stroke-linecap:butt;stroke-linejoin:miter;stroke-miterlimit:4;stroke-opacity:1;stroke-dasharray:none"
           inkscape:connector-curvature="0" />
        <path
           style="fill:none;stroke:#00d811;stroke-width:19.96100043999999940;stroke-linecap:butt;stroke-linejoin:miter;stroke-miterlimit:4;stroke-opacity:1;stroke-dasharray:none"
           d="m 516.25508,455.6991 149.81134,-101.93765 67.60683,-13.91704 -67.60683,13.91704 99.47501,-113.91456 47.29694,-47.18198 5.82133,-57.1826 -5.82133,57.1826 -47.29694,47.18198 -23.7358,-59.06775 3.21023,-46.98282 -3.21023,46.98282 -41.83576,-27.90655 41.83576,27.90655 23.7358,59.06775 -99.47501,113.91456 -149.81134,106.22336 m -47.14286,22.85714 -35.71847,-113.62458 42.03541,-103.95166 46.31698,-59.23021 8.8133,-61.51658 24.94695,-42.38366 -24.94695,42.38366 -8.8133,61.51658 -46.31698,59.23021 -27.63451,-82.0223 11.35215,-57.40938 -11.35215,57.40938 -40.65841,-27.92004 40.65841,27.92004 27.63451,82.0223 -42.03541,102.52309 -66.015,-98.26809 C 332.23448,243.90423 281.38909,203.27549 281.38909,203.27549 L 208.82718,147.47425 170.48162,86.946191 118.61994,54.315855 95.205924,13.451914 l 23.414016,40.863941 51.86168,32.630336 38.34556,60.528059 -62.96534,-5.75509 -39.20997,-31.80428 39.20997,31.80428 62.96534,5.75509 72.56191,55.80124 -50.1149,20.62874 -28.83242,36.87446 28.83242,-36.87446 50.1149,-20.62874 87.41823,70.53094 64.58643,93.98237 m 0,0 35.71847,112.19601"
           id="path7239"
           inkscape:connector-curvature="0"
           sodipodi:nodetypes="ccccccccccccccccccccccccccccccccccccccccccccccccccccccc" />
      </g>
      <path
         inkscape:transform-center-y="156.52335"
         inkscape:transform-center-x="56.540031"
         inkscape:connector-curvature="0"
         id="path9261"
         d="m 477.6767,491.93337 -60.6892,135.60782 -139.15301,25.98497 -65.15654,15.609 -44.77325,38.80924 44.77325,-38.80924 65.15654,-15.609 -16.42299,57.84565 -31.54002,36.75058 31.54002,-36.75058 16.42299,-57.84565 139.15301,-25.98497 70.50635,67.81767 2.32617,66.72695 -2.32617,-68.15552 -70.50635,-66.3891 60.6892,-135.60782 256.51051,154.83282 1.40769,83.496 -25.60589,55.03526 25.60589,-55.03526 -1.40769,-83.496 62.26419,50.59188 15.44356,49.04426 L 796.4514,697.35807 728.47292,636.76619 477.6767,491.93337"
         style="fill:none;stroke:#00d811;stroke-width:19.96123122999999921;stroke-linecap:butt;stroke-linejoin:miter;stroke-miterlimit:4;stroke-opacity:1;stroke-dasharray:none"
         sodipodi:nodetypes="ccccccccccccccccccccccccccc" />
    </g>
    <path
       sodipodi:nodetypes="acccccccccccccaa"
       inkscape:connector-curvature="0"
       id="path3040"
       d="m 555.55993,475.56068 c -8.65226,9.53839 -14.00864,22.45292 -28.50427,26.07853 -18.02155,0.8948 -15.29898,18.53887 -20.61391,31.07597 -2.53614,23.30106 -16.70656,-1.38308 -26.81266,15.269 -12.04514,9.90133 -26.23406,0.5601 -24.36058,-13.44269 0.82736,-17.01808 -19.968,-13.43987 -25.48397,-26.95646 -11.2273,-15.14115 -34.30283,-20.84759 -37.25081,-41.48022 -13.41179,-5.01826 -7.06405,-29.13504 8.02349,-27.27368 21.49832,5.3587 15.92155,-13.52626 24.01105,-23.5704 15.12498,-4.43616 22.58062,-15.8812 26.60403,-30.46289 4.673,-14.17349 14.36446,0.21072 22.30657,-16.01894 14.40181,3.70611 28.05046,2.96928 29.51381,16.91429 9.80303,10.209 23.97633,19.1539 15.18865,34.74027 13.39895,-1.05098 28.38457,-4.42845 31.29138,13.08235 5.13899,25.11745 20.00069,12.69659 20.43236,22.92339 0.33603,7.961 -8.99166,13.21972 -14.34514,19.12148 z"
       style="fill:#000055;fill-opacity:1;stroke:none" />
  </g>
  <text
     xml:space="preserve"
     style="font-size:1035.36120604999996431px;font-style:normal;font-variant:normal;font-weight:normal;font-stretch:normal;text-align:start;line-height:125%;letter-spacing:0px;word-spacing:0px;writing-mode:lr-tb;text-anchor:start;fill:#000055;fill-opacity:1;stroke:none;font-family:Monospace;-inkscape-font-specification:Monospace"
     x="965.53503"
     y="954.85968"
     id="text7807"
     sodipodi:linespacing="125%"><tspan
       sodipodi:role="line"
       x="965.53503"
       y="954.85968"
       id="tspan7811">ecto</tspan></text>
</svg>
