<?xml version="1.0" encoding="UTF-8" standalone="no"?>
<!DOCTYPE svg PUBLIC "-//W3C//DTD SVG 1.1//EN"
 "http://www.w3.org/Graphics/SVG/1.1/DTD/svg11.dtd">
<!-- Generated by graphviz version 2.26.3 (20100126.1600)
 -->
<!-- Title: G Pages: 1 -->
<svg width="442pt" height="206pt"
 viewBox="0.00 0.00 442.00 206.00" xmlns="http://www.w3.org/2000/svg" xmlns:xlink="http://www.w3.org/1999/xlink">
<g id="graph1" class="graph" transform="scale(1 1) rotate(0) translate(4 202)">
<title>G</title>
<polygon fill="white" stroke="white" points="-4,5 -4,-202 439,-202 439,5 -4,5"/>
<!-- KinectColor -->
<g id="node1" class="node"><title>KinectColor</title>
<polygon fill="none" stroke="black" stroke-width="0" points="147,-198 7,-198 7,-162 147,-162 147,-198"/>
<text text-anchor="middle" x="77" y="-176.4" font-family="Times Roman,serif" font-size="14.00">Kinect RGB Image</text>
</g>
<!-- CTR -->
<g id="node5" class="node"><title>CTR</title>
<ellipse fill="none" stroke="black" cx="253" cy="-99" rx="62.9325" ry="31.1127"/>
<text text-anchor="middle" x="253" y="-104.4" font-family="Times Roman,serif" font-size="14.00">perception</text>
<text text-anchor="middle" x="253" y="-86.4" font-family="Times Roman,serif" font-size="14.00">logic</text>
</g>
<!-- KinectColor&#45;&gt;CTR -->
<g id="edge2" class="edge"><title>KinectColor&#45;&gt;CTR</title>
<path fill="none" stroke="black" d="M132.111,-161.901C139.543,-159.105 147.01,-156.107 154,-153 170.45,-145.687 187.856,-136.661 203.408,-128.095"/>
<polygon fill="black" stroke="black" points="205.299,-131.048 212.33,-123.122 201.891,-124.934 205.299,-131.048"/>
</g>
<!-- KinectDepth -->
<g id="node2" class="node"><title>KinectDepth</title>
<polygon fill="none" stroke="black" stroke-width="0" points="153,-144 1,-144 1,-108 153,-108 153,-144"/>
<text text-anchor="middle" x="77" y="-122.4" font-family="Times Roman,serif" font-size="14.00">Kinect Depth Image</text>
</g>
<!-- KinectDepth&#45;&gt;CTR -->
<g id="edge4" class="edge"><title>KinectDepth&#45;&gt;CTR</title>
<path fill="none" stroke="black" d="M153.684,-114.236C163.276,-112.764 173.05,-111.265 182.541,-109.809"/>
<polygon fill="black" stroke="black" points="183.352,-113.226 192.706,-108.25 182.291,-106.307 183.352,-113.226"/>
</g>
<!-- WebCam -->
<g id="node3" class="node"><title>WebCam</title>
<polygon fill="none" stroke="black" stroke-width="0" points="131,-90 23,-90 23,-54 131,-54 131,-90"/>
<text text-anchor="middle" x="77" y="-68.4" font-family="Times Roman,serif" font-size="14.00">USB Webcam</text>
</g>
<!-- WebCam&#45;&gt;CTR -->
<g id="edge6" class="edge"><title>WebCam&#45;&gt;CTR</title>
<path fill="none" stroke="black" d="M131.723,-80.395C147.919,-82.8796 165.878,-85.6347 182.904,-88.2466"/>
<polygon fill="black" stroke="black" points="182.385,-91.7079 192.8,-89.7648 183.446,-84.7888 182.385,-91.7079"/>
</g>
<!-- LaserScan -->
<g id="node4" class="node"><title>LaserScan</title>
<polygon fill="none" stroke="black" stroke-width="0" points="121,-36 33,-36 33,-1.77636e-14 121,-3.55271e-15 121,-36"/>
<text text-anchor="middle" x="77" y="-14.4" font-family="Times Roman,serif" font-size="14.00">Laser scan</text>
</g>
<!-- LaserScan&#45;&gt;CTR -->
<g id="edge8" class="edge"><title>LaserScan&#45;&gt;CTR</title>
<path fill="none" stroke="black" d="M121.862,-32.3538C132.526,-36.1426 143.774,-40.4541 154,-45 170.45,-52.3128 187.856,-61.3392 203.408,-69.9047"/>
<polygon fill="black" stroke="black" points="201.891,-73.066 212.33,-74.8783 205.299,-66.9519 201.891,-73.066"/>
</g>
<!-- Pose -->
<g id="node10" class="node"><title>Pose</title>
<polygon fill="none" stroke="black" stroke-width="0" points="420,-144 366,-144 366,-108 420,-108 420,-144"/>
<text text-anchor="middle" x="393" y="-122.4" font-family="Times Roman,serif" font-size="14.00">Pose</text>
</g>
<!-- CTR&#45;&gt;Pose -->
<g id="edge10" class="edge"><title>CTR&#45;&gt;Pose</title>
<path fill="none" stroke="black" d="M311.967,-110.372C326.854,-113.243 342.424,-116.246 355.892,-118.844"/>
<polygon fill="black" stroke="black" points="355.253,-122.285 365.735,-120.742 356.579,-115.411 355.253,-122.285"/>
</g>
<!-- ObjectId -->
<g id="node11" class="node"><title>ObjectId</title>
<polygon fill="none" stroke="black" stroke-width="0" points="433,-90 353,-90 353,-54 433,-54 433,-90"/>
<text text-anchor="middle" x="393" y="-68.4" font-family="Times Roman,serif" font-size="14.00">Object ID</text>
</g>
<!-- CTR&#45;&gt;ObjectId -->
<g id="edge12" class="edge"><title>CTR&#45;&gt;ObjectId</title>
<path fill="none" stroke="black" d="M311.967,-87.6278C322.061,-85.6811 332.469,-83.6738 342.323,-81.7734"/>
<polygon fill="black" stroke="black" points="343.199,-85.1691 352.355,-79.8387 341.873,-78.2958 343.199,-85.1691"/>
</g>
</g>
</svg>
