<?xml version="1.0" encoding="UTF-8" standalone="no"?>
<!DOCTYPE svg PUBLIC "-//W3C//DTD SVG 1.1//EN"
 "http://www.w3.org/Graphics/SVG/1.1/DTD/svg11.dtd">
<!-- Generated by graphviz version 2.26.3 (20100126.1600)
 -->
<!-- Title: G Pages: 1 -->
<svg width="440pt" height="712pt"
 viewBox="0.00 0.00 440.00 712.00" xmlns="http://www.w3.org/2000/svg" xmlns:xlink="http://www.w3.org/1999/xlink">
<g id="graph1" class="graph" transform="scale(1 1) rotate(0) translate(4 708)">
<title>G</title>
<polygon fill="white" stroke="white" points="-4,5 -4,-708 437,-708 437,5 -4,5"/>
<!-- KinectColor -->
<g id="node1" class="node"><title>KinectColor</title>
<ellipse fill="none" stroke="black" cx="99" cy="-685" rx="99.201" ry="18.3848"/>
<text text-anchor="middle" x="99" y="-681.4" font-family="Times Roman,serif" font-size="14.00">Kinect RGB Image</text>
</g>
<!-- ConstructPointCloud -->
<g id="node4" class="node"><title>ConstructPointCloud</title>
<ellipse fill="none" stroke="black" cx="211" cy="-611" rx="111.222" ry="18.3848"/>
<text text-anchor="middle" x="211" y="-607.4" font-family="Times Roman,serif" font-size="14.00">ConstructPointCloud</text>
</g>
<!-- KinectColor&#45;&gt;ConstructPointCloud -->
<g id="edge2" class="edge"><title>KinectColor&#45;&gt;ConstructPointCloud</title>
<path fill="none" stroke="black" d="M126.112,-667.087C140.861,-657.342 159.29,-645.165 175.206,-634.65"/>
<polygon fill="black" stroke="black" points="177.335,-637.438 183.749,-629.005 173.477,-631.597 177.335,-637.438"/>
</g>
<!-- KinectDepth -->
<g id="node2" class="node"><title>KinectDepth</title>
<ellipse fill="none" stroke="black" cx="324" cy="-685" rx="108.187" ry="18.3848"/>
<text text-anchor="middle" x="324" y="-681.4" font-family="Times Roman,serif" font-size="14.00">Kinect Depth Image</text>
</g>
<!-- KinectDepth&#45;&gt;ConstructPointCloud -->
<g id="edge4" class="edge"><title>KinectDepth&#45;&gt;ConstructPointCloud</title>
<path fill="none" stroke="black" d="M296.646,-667.087C281.766,-657.342 263.171,-645.165 247.114,-634.65"/>
<polygon fill="black" stroke="black" points="248.777,-631.555 238.494,-629.005 244.942,-637.411 248.777,-631.555"/>
</g>
<!-- DownSample -->
<g id="node7" class="node"><title>DownSample</title>
<ellipse fill="none" stroke="black" cx="142" cy="-537" rx="75.8684" ry="18.3848"/>
<text text-anchor="middle" x="142" y="-533.4" font-family="Times Roman,serif" font-size="14.00">DownSample</text>
</g>
<!-- ConstructPointCloud&#45;&gt;DownSample -->
<g id="edge6" class="edge"><title>ConstructPointCloud&#45;&gt;DownSample</title>
<path fill="none" stroke="black" d="M193.944,-592.708C185.421,-583.567 174.971,-572.36 165.684,-562.4"/>
<polygon fill="black" stroke="black" points="168.24,-560.009 158.86,-555.082 163.12,-564.782 168.24,-560.009"/>
</g>
<!-- Merge -->
<g id="node13" class="node"><title>Merge</title>
<ellipse fill="none" stroke="black" cx="197" cy="-93" rx="41.2167" ry="18.3848"/>
<text text-anchor="middle" x="197" y="-89.4" font-family="Times Roman,serif" font-size="14.00">Merge</text>
</g>
<!-- ConstructPointCloud&#45;&gt;Merge -->
<g id="edge14" class="edge"><title>ConstructPointCloud&#45;&gt;Merge</title>
<path fill="none" stroke="black" d="M220.967,-592.444C234.764,-564.981 258,-511.526 258,-463 258,-463 258,-463 258,-241 258,-198.626 254.489,-186.597 237,-148 232.273,-137.568 225.386,-127.146 218.653,-118.223"/>
<polygon fill="black" stroke="black" points="221.256,-115.87 212.322,-110.176 215.755,-120.199 221.256,-115.87"/>
</g>
<!-- NormalEstimation -->
<g id="node8" class="node"><title>NormalEstimation</title>
<ellipse fill="none" stroke="black" cx="125" cy="-463" rx="98.9949" ry="18.3848"/>
<text text-anchor="middle" x="125" y="-459.4" font-family="Times Roman,serif" font-size="14.00">NormalEstimation</text>
</g>
<!-- DownSample&#45;&gt;NormalEstimation -->
<g id="edge7" class="edge"><title>DownSample&#45;&gt;NormalEstimation</title>
<path fill="none" stroke="black" d="M137.71,-518.327C135.838,-510.176 133.601,-500.438 131.529,-491.42"/>
<polygon fill="black" stroke="black" points="134.939,-490.63 129.288,-481.667 128.116,-492.197 134.939,-490.63"/>
</g>
<!-- PlanarSegmentation -->
<g id="node9" class="node"><title>PlanarSegmentation</title>
<ellipse fill="none" stroke="black" cx="119" cy="-389" rx="111.222" ry="18.3848"/>
<text text-anchor="middle" x="119" y="-385.4" font-family="Times Roman,serif" font-size="14.00">PlanarSegmentation</text>
</g>
<!-- NormalEstimation&#45;&gt;PlanarSegmentation -->
<g id="edge8" class="edge"><title>NormalEstimation&#45;&gt;PlanarSegmentation</title>
<path fill="none" stroke="black" d="M123.486,-444.327C122.832,-436.264 122.053,-426.648 121.328,-417.711"/>
<polygon fill="black" stroke="black" points="124.81,-417.352 120.514,-407.667 117.833,-417.918 124.81,-417.352"/>
</g>
<!-- ConvexHull -->
<g id="node10" class="node"><title>ConvexHull</title>
<ellipse fill="none" stroke="black" cx="122" cy="-315" rx="67.1751" ry="18.3848"/>
<text text-anchor="middle" x="122" y="-311.4" font-family="Times Roman,serif" font-size="14.00">ConvexHull</text>
</g>
<!-- PlanarSegmentation&#45;&gt;ConvexHull -->
<g id="edge9" class="edge"><title>PlanarSegmentation&#45;&gt;ConvexHull</title>
<path fill="none" stroke="black" d="M119.757,-370.327C120.084,-362.264 120.474,-352.648 120.836,-343.711"/>
<polygon fill="black" stroke="black" points="124.335,-343.801 121.243,-333.667 117.341,-343.517 124.335,-343.801"/>
</g>
<!-- ExtractClusters -->
<g id="node11" class="node"><title>ExtractClusters</title>
<ellipse fill="none" stroke="black" cx="132" cy="-241" rx="86.9741" ry="18.3848"/>
<text text-anchor="middle" x="132" y="-237.4" font-family="Times Roman,serif" font-size="14.00">ExtractClusters</text>
</g>
<!-- ConvexHull&#45;&gt;ExtractClusters -->
<g id="edge10" class="edge"><title>ConvexHull&#45;&gt;ExtractClusters</title>
<path fill="none" stroke="black" d="M124.523,-296.327C125.613,-288.264 126.912,-278.648 128.12,-269.711"/>
<polygon fill="black" stroke="black" points="131.607,-270.046 129.477,-259.667 124.67,-269.109 131.607,-270.046"/>
</g>
<!-- ColorizeClusters -->
<g id="node12" class="node"><title>ColorizeClusters</title>
<ellipse fill="none" stroke="black" cx="137" cy="-167" rx="91.2168" ry="18.3848"/>
<text text-anchor="middle" x="137" y="-163.4" font-family="Times Roman,serif" font-size="14.00">ColorizeClusters</text>
</g>
<!-- ExtractClusters&#45;&gt;ColorizeClusters -->
<g id="edge11" class="edge"><title>ExtractClusters&#45;&gt;ColorizeClusters</title>
<path fill="none" stroke="black" d="M133.262,-222.327C133.806,-214.264 134.456,-204.648 135.06,-195.711"/>
<polygon fill="black" stroke="black" points="138.556,-195.881 135.739,-185.667 131.572,-195.409 138.556,-195.881"/>
</g>
<!-- ColorizeClusters&#45;&gt;Merge -->
<g id="edge12" class="edge"><title>ColorizeClusters&#45;&gt;Merge</title>
<path fill="none" stroke="black" d="M151.831,-148.708C159.206,-139.613 168.239,-128.471 176.285,-118.549"/>
<polygon fill="black" stroke="black" points="179.173,-120.544 182.752,-110.572 173.736,-116.135 179.173,-120.544"/>
</g>
<!-- Display -->
<g id="node16" class="node"><title>Display</title>
<ellipse fill="none" stroke="black" cx="197" cy="-19" rx="46.8775" ry="18.3848"/>
<text text-anchor="middle" x="197" y="-15.4" font-family="Times Roman,serif" font-size="14.00">Display</text>
</g>
<!-- Merge&#45;&gt;Display -->
<g id="edge16" class="edge"><title>Merge&#45;&gt;Display</title>
<path fill="none" stroke="black" d="M197,-74.3267C197,-66.2639 197,-56.6477 197,-47.7115"/>
<polygon fill="black" stroke="black" points="200.5,-47.6673 197,-37.6674 193.5,-47.6674 200.5,-47.6673"/>
</g>
</g>
</svg>
