<?xml version="1.0" encoding="UTF-8" standalone="no"?>
<!DOCTYPE svg PUBLIC "-//W3C//DTD SVG 1.1//EN"
 "http://www.w3.org/Graphics/SVG/1.1/DTD/svg11.dtd">
<!-- Generated by graphviz version 2.26.3 (20100126.1600)
 -->
<!-- Title: G Pages: 1 -->
<svg width="254pt" height="152pt"
 viewBox="0.00 0.00 254.00 152.00" xmlns="http://www.w3.org/2000/svg" xmlns:xlink="http://www.w3.org/1999/xlink">
<g id="graph1" class="graph" transform="scale(1 1) rotate(0) translate(4 148)">
<title>G</title>
<polygon fill="white" stroke="white" points="-4,5 -4,-148 251,-148 251,5 -4,5"/>
<!-- A -->
<g id="node1" class="node"><title>A</title>
<ellipse fill="none" stroke="black" stroke-width="0" cx="27" cy="-126" rx="27" ry="18.3848"/>
<text text-anchor="middle" x="27" y="-122.4" font-family="Times Roman,serif" font-size="14.00">A</text>
</g>
<!-- CTR -->
<g id="node4" class="node"><title>CTR</title>
<ellipse fill="none" stroke="black" cx="123" cy="-72" rx="33.234" ry="18.3848"/>
<text text-anchor="middle" x="123" y="-68.4" font-family="Times Roman,serif" font-size="14.00">logic</text>
</g>
<!-- A&#45;&gt;CTR -->
<g id="edge2" class="edge"><title>A&#45;&gt;CTR</title>
<path fill="none" stroke="black" d="M47.8306,-114.283C60.4063,-107.209 76.6919,-98.0483 90.8878,-90.0631"/>
<polygon fill="black" stroke="black" points="92.8549,-92.9724 99.8548,-85.0192 89.4231,-86.8713 92.8549,-92.9724"/>
</g>
<!-- B -->
<g id="node2" class="node"><title>B</title>
<ellipse fill="none" stroke="black" stroke-width="0" cx="27" cy="-72" rx="27" ry="18.3848"/>
<text text-anchor="middle" x="27" y="-68.4" font-family="Times Roman,serif" font-size="14.00">B</text>
</g>
<!-- B&#45;&gt;CTR -->
<g id="edge4" class="edge"><title>B&#45;&gt;CTR</title>
<path fill="none" stroke="black" d="M54.253,-72C62.2215,-72 71.1346,-72 79.8338,-72"/>
<polygon fill="black" stroke="black" points="79.8783,-75.5001 89.8782,-72 79.8782,-68.5001 79.8783,-75.5001"/>
</g>
<!-- C -->
<g id="node3" class="node"><title>C</title>
<ellipse fill="none" stroke="black" stroke-width="0" cx="27" cy="-18" rx="27" ry="18.3848"/>
<text text-anchor="middle" x="27" y="-14.4" font-family="Times Roman,serif" font-size="14.00">C</text>
</g>
<!-- C&#45;&gt;CTR -->
<g id="edge6" class="edge"><title>C&#45;&gt;CTR</title>
<path fill="none" stroke="black" d="M47.8306,-29.7172C60.4063,-36.791 76.6919,-45.9517 90.8878,-53.9369"/>
<polygon fill="black" stroke="black" points="89.4231,-57.1287 99.8548,-58.9808 92.8549,-51.0276 89.4231,-57.1287"/>
</g>
<!-- D -->
<g id="node5" class="node"><title>D</title>
<ellipse fill="none" stroke="black" stroke-width="0" cx="219" cy="-99" rx="27" ry="18.3848"/>
<text text-anchor="middle" x="219" y="-95.4" font-family="Times Roman,serif" font-size="14.00">E</text>
</g>
<!-- CTR&#45;&gt;D -->
<g id="edge8" class="edge"><title>CTR&#45;&gt;D</title>
<path fill="none" stroke="black" d="M152.586,-80.3212C162.503,-83.1102 173.655,-86.2469 183.949,-89.142"/>
<polygon fill="black" stroke="black" points="183.305,-92.5965 193.879,-91.9347 185.2,-85.8579 183.305,-92.5965"/>
</g>
<!-- E -->
<g id="node6" class="node"><title>E</title>
<ellipse fill="none" stroke="black" stroke-width="0" cx="219" cy="-45" rx="27" ry="18.3848"/>
<text text-anchor="middle" x="219" y="-41.4" font-family="Times Roman,serif" font-size="14.00">F</text>
</g>
<!-- CTR&#45;&gt;E -->
<g id="edge10" class="edge"><title>CTR&#45;&gt;E</title>
<path fill="none" stroke="black" d="M152.586,-63.6788C162.503,-60.8898 173.655,-57.7531 183.949,-54.858"/>
<polygon fill="black" stroke="black" points="185.2,-58.1421 193.879,-52.0653 183.305,-51.4035 185.2,-58.1421"/>
</g>
</g>
</svg>
