<?xml version="1.0" encoding="UTF-8" standalone="no"?>
<!DOCTYPE svg PUBLIC "-//W3C//DTD SVG 1.1//EN"
 "http://www.w3.org/Graphics/SVG/1.1/DTD/svg11.dtd">
<!-- Generated by graphviz version 2.26.3 (20100126.1600)
 -->
<!-- Title: G Pages: 1 -->
<svg width="314pt" height="152pt"
 viewBox="0.00 0.00 314.00 152.00" xmlns="http://www.w3.org/2000/svg" xmlns:xlink="http://www.w3.org/1999/xlink">
<g id="graph1" class="graph" transform="scale(1 1) rotate(0) translate(4 148)">
<title>G</title>
<polygon fill="white" stroke="white" points="-4,5 -4,-148 311,-148 311,5 -4,5"/>
<!-- A -->
<g id="node1" class="node"><title>A</title>
<ellipse fill="none" stroke="black" stroke-width="0" cx="27" cy="-126" rx="27" ry="18.3848"/>
<text text-anchor="middle" x="27" y="-122.4" font-family="Times Roman,serif" font-size="14.00">A</text>
</g>
<!-- CTR -->
<g id="node6" class="node"><title>CTR</title>
<ellipse fill="none" stroke="black" cx="153" cy="-72" rx="62.9325" ry="31.1127"/>
<text text-anchor="middle" x="153" y="-77.4" font-family="Times Roman,serif" font-size="14.00">perception</text>
<text text-anchor="middle" x="153" y="-59.4" font-family="Times Roman,serif" font-size="14.00">logic</text>
</g>
<!-- A&#45;&gt;CTR -->
<g id="edge2" class="edge"><title>A&#45;&gt;CTR</title>
<path fill="none" stroke="black" d="M49.8176,-116.221C62.7412,-110.682 79.5367,-103.484 95.8105,-96.5098"/>
<polygon fill="black" stroke="black" points="97.4861,-99.5996 105.299,-92.4434 94.7287,-93.1656 97.4861,-99.5996"/>
</g>
<!-- B -->
<g id="node2" class="node"><title>B</title>
<ellipse fill="none" stroke="black" stroke-width="0" cx="27" cy="-72" rx="27" ry="18.3848"/>
<text text-anchor="middle" x="27" y="-68.4" font-family="Times Roman,serif" font-size="14.00">B</text>
</g>
<!-- B&#45;&gt;CTR -->
<g id="edge4" class="edge"><title>B&#45;&gt;CTR</title>
<path fill="none" stroke="black" d="M54.0302,-72C61.7007,-72 70.4411,-72 79.4788,-72"/>
<polygon fill="black" stroke="black" points="79.7679,-75.5001 89.7678,-72 79.7678,-68.5001 79.7679,-75.5001"/>
</g>
<!-- C -->
<g id="node3" class="node"><title>C</title>
<ellipse fill="none" stroke="black" stroke-width="0" cx="27" cy="-18" rx="27" ry="18.3848"/>
<text text-anchor="middle" x="27" y="-14.4" font-family="Times Roman,serif" font-size="14.00">C</text>
</g>
<!-- C&#45;&gt;CTR -->
<g id="edge6" class="edge"><title>C&#45;&gt;CTR</title>
<path fill="none" stroke="black" d="M49.8176,-27.779C62.7412,-33.3177 79.5367,-40.5157 95.8105,-47.4902"/>
<polygon fill="black" stroke="black" points="94.7287,-50.8344 105.299,-51.5566 97.4861,-44.4004 94.7287,-50.8344"/>
</g>
<!-- D -->
<g id="node4" class="node"><title>D</title>
<ellipse fill="none" stroke="black" stroke-width="0" cx="279" cy="-99" rx="27" ry="18.3848"/>
<text text-anchor="middle" x="279" y="-95.4" font-family="Times Roman,serif" font-size="14.00">D</text>
</g>
<!-- E -->
<g id="node5" class="node"><title>E</title>
<ellipse fill="none" stroke="black" stroke-width="0" cx="279" cy="-45" rx="27" ry="18.3848"/>
<text text-anchor="middle" x="279" y="-41.4" font-family="Times Roman,serif" font-size="14.00">E</text>
</g>
<!-- CTR&#45;&gt;D -->
<g id="edge8" class="edge"><title>CTR&#45;&gt;D</title>
<path fill="none" stroke="black" d="M210.837,-84.3937C221.881,-86.7601 233.137,-89.1722 243.237,-91.3365"/>
<polygon fill="black" stroke="black" points="242.775,-94.8168 253.286,-93.4899 244.241,-87.9722 242.775,-94.8168"/>
</g>
<!-- CTR&#45;&gt;E -->
<g id="edge10" class="edge"><title>CTR&#45;&gt;E</title>
<path fill="none" stroke="black" d="M210.837,-59.6063C221.881,-57.2399 233.137,-54.8278 243.237,-52.6635"/>
<polygon fill="black" stroke="black" points="244.241,-56.0278 253.286,-50.5101 242.775,-49.1832 244.241,-56.0278"/>
</g>
</g>
</svg>
