<?xml version="1.0" encoding="UTF-8" standalone="no"?>
<!-- Created with Inkscape (http://www.inkscape.org/) -->

<svg
   xmlns:dc="http://purl.org/dc/elements/1.1/"
   xmlns:cc="http://creativecommons.org/ns#"
   xmlns:rdf="http://www.w3.org/1999/02/22-rdf-syntax-ns#"
   xmlns:svg="http://www.w3.org/2000/svg"
   xmlns="http://www.w3.org/2000/svg"
   xmlns:xlink="http://www.w3.org/1999/xlink"
   xmlns:sodipodi="http://sodipodi.sourceforge.net/DTD/sodipodi-0.dtd"
   xmlns:inkscape="http://www.inkscape.org/namespaces/inkscape"
   width="695.32764"
   height="379.77945"
   id="svg2"
   version="1.1"
   inkscape:version="0.48.2 r9819"
   sodipodi:docname="ecto.svg"
   inkscape:export-filename="/usr/wiss/gossow/Desktop/Dropbox/Ecto Logo/ecto.png"
   inkscape:export-xdpi="90"
   inkscape:export-ydpi="90">
  <defs
     id="defs4">
    <linearGradient
       id="linearGradient5265">
      <stop
         style="stop-color:#3f9dff;stop-opacity:1;"
         offset="0"
         id="stop5267" />
      <stop
         style="stop-color:#00ff72;stop-opacity:1;"
         offset="1"
         id="stop5269" />
    </linearGradient>
    <color-profile
       name="Compatible-with-Adobe-RGB--1998-"
       xlink:href="/usr/share/color/icc/compatibleWithAdobeRGB1998.icc"
       id="color-profile3052" />
    <filter
       id="filter4158"
       inkscape:label="Bubbly Bumps"
       inkscape:menu="Bumps"
       inkscape:menu-tooltip="Flexible bubbles effect with some displacement"
       color-interpolation-filters="sRGB">
      <feGaussianBlur
         id="feGaussianBlur4160"
         result="result0"
         in="SourceGraphic"
         stdDeviation="0.5" />
      <feTurbulence
         id="feTurbulence4162"
         baseFrequency="0.2"
         seed="300"
         numOctaves="10"
         result="result1"
         type="fractalNoise" />
      <feGaussianBlur
         id="feGaussianBlur4164"
         stdDeviation="10.5"
         result="result8" />
      <feDisplacementMap
         id="feDisplacementMap4166"
         in2="result8"
         result="result7"
         scale="5"
         in="result0"
         xChannelSelector="R"
         yChannelSelector="A" />
      <feComposite
         id="feComposite4168"
         in2="result1"
         result="result2"
         operator="in"
         in="result7" />
      <feComposite
         id="feComposite4170"
         in2="result2"
         k3="3"
         in="result0"
         operator="arithmetic"
         result="result9"
         k1="0"
         k2="0"
         k4="0" />
      <feBlend
         id="feBlend4172"
         in2="result2"
         result="fbSourceGraphic"
         mode="multiply" />
      <feColorMatrix
         id="feColorMatrix4174"
         values="1 0 0 -1 0 1 0 1 -1 0 1 0 0 -1 0 -1.8 -0.5 0 5.7 -3.5 "
         in="fbSourceGraphic"
         result="fbSourceGraphicAlpha" />
      <feGaussianBlur
         id="feGaussianBlur4176"
         stdDeviation="0.5"
         in="fbSourceGraphicAlpha"
         result="result0" />
      <feSpecularLighting
         id="feSpecularLighting4178"
         result="result6"
         surfaceScale="5"
         specularExponent="3">
        <feDistantLight
           id="feDistantLight4180"
           azimuth="225"
           elevation="10" />
      </feSpecularLighting>
      <feComposite
         id="feComposite4182"
         in2="fbSourceGraphicAlpha"
         in="result6"
         result="result2"
         operator="in" />
      <feComposite
         id="feComposite4184"
         in2="result2"
         in="fbSourceGraphic"
         result="result4"
         operator="arithmetic"
         k2="1"
         k3="0.7"
         k1="0"
         k4="0" />
    </filter>
    <filter
       id="filter4158-8"
       inkscape:label="Bubbly Bumps"
       inkscape:menu="Bumps"
       inkscape:menu-tooltip="Flexible bubbles effect with some displacement"
       color-interpolation-filters="sRGB">
      <feGaussianBlur
         id="feGaussianBlur4160-2"
         result="result0"
         in="SourceGraphic"
         stdDeviation="0.5" />
      <feTurbulence
         id="feTurbulence4162-0"
         baseFrequency="0.2"
         seed="300"
         numOctaves="10"
         result="result1"
         type="fractalNoise" />
      <feGaussianBlur
         id="feGaussianBlur4164-1"
         stdDeviation="10.5"
         result="result8" />
      <feDisplacementMap
         yChannelSelector="A"
         id="feDisplacementMap4166-2"
         in2="result8"
         result="result7"
         scale="5"
         in="result0"
         xChannelSelector="R" />
      <feComposite
         id="feComposite4168-4"
         in2="result1"
         result="result2"
         operator="in"
         in="result7" />
      <feComposite
         k4="0"
         k2="0"
         k1="0"
         id="feComposite4170-1"
         in2="result2"
         k3="3"
         in="result0"
         operator="arithmetic"
         result="result9" />
      <feBlend
         id="feBlend4172-2"
         in2="result2"
         result="fbSourceGraphic"
         mode="multiply" />
      <feColorMatrix
         id="feColorMatrix4174-4"
         values="1 0 0 -1 0 1 0 1 -1 0 1 0 0 -1 0 -1.8 -0.5 0 5.7 -3.5 "
         in="fbSourceGraphic"
         result="fbSourceGraphicAlpha" />
      <feGaussianBlur
         id="feGaussianBlur4176-7"
         stdDeviation="0.5"
         in="fbSourceGraphicAlpha"
         result="result0" />
      <feSpecularLighting
         id="feSpecularLighting4178-6"
         result="result6"
         surfaceScale="5"
         specularExponent="3">
        <feDistantLight
           id="feDistantLight4180-6"
           azimuth="225"
           elevation="10" />
      </feSpecularLighting>
      <feComposite
         id="feComposite4182-3"
         in2="fbSourceGraphicAlpha"
         in="result6"
         result="result2"
         operator="in" />
      <feComposite
         k4="0"
         k1="0"
         id="feComposite4184-9"
         in2="result2"
         in="fbSourceGraphic"
         result="result4"
         operator="arithmetic"
         k2="1"
         k3="0.7" />
    </filter>
    <radialGradient
       inkscape:collect="always"
       xlink:href="#linearGradient5265"
       id="radialGradient5271"
       cx="343.84183"
       cy="677.41223"
       fx="343.84183"
       fy="677.41223"
       r="223.2672"
       gradientTransform="matrix(1.7998104,0,0,1.4764495,-780.54856,-1200.9472)"
       gradientUnits="userSpaceOnUse" />
    <radialGradient
       inkscape:collect="always"
       xlink:href="#linearGradient5265-3"
       id="radialGradient5271-2"
       cx="401.78442"
       cy="680.31494"
       fx="401.78442"
       fy="680.31494"
       r="223.2672"
       gradientTransform="matrix(1,0,0,0.82033615,-857.51113,787.89415)"
       gradientUnits="userSpaceOnUse" />
    <linearGradient
       id="linearGradient5265-3">
      <stop
         style="stop-color:#0066ff;stop-opacity:1;"
         offset="0"
         id="stop5267-1" />
      <stop
         style="stop-color:#00ff72;stop-opacity:1;"
         offset="1"
         id="stop5269-8" />
    </linearGradient>
    <linearGradient
       id="linearGradient5265-9">
      <stop
         style="stop-color:#0066ff;stop-opacity:1;"
         offset="0"
         id="stop5267-4" />
      <stop
         style="stop-color:#00ff72;stop-opacity:1;"
         offset="1"
         id="stop5269-83" />
    </linearGradient>
    <radialGradient
       inkscape:collect="always"
       xlink:href="#linearGradient5265-4"
       id="radialGradient5271-4"
       cx="343.84183"
       cy="677.41223"
       fx="343.84183"
       fy="677.41223"
       r="223.2672"
       gradientTransform="matrix(1.7998104,0,0,1.4764495,-57.279337,-312.01293)"
       gradientUnits="userSpaceOnUse" />
    <linearGradient
       id="linearGradient5265-4">
      <stop
         style="stop-color:#4ba3ff;stop-opacity:1;"
         offset="0"
         id="stop5267-0" />
      <stop
         style="stop-color:#00ff72;stop-opacity:1;"
         offset="1"
         id="stop5269-2" />
    </linearGradient>
    <radialGradient
       r="223.2672"
       fy="677.41223"
       fx="343.84183"
       cy="677.41223"
       cx="343.84183"
       gradientTransform="matrix(1.7998104,0,0,1.4764495,10.509259,-1234.7276)"
       gradientUnits="userSpaceOnUse"
       id="radialGradient5597"
       xlink:href="#linearGradient5265-4"
       inkscape:collect="always" />
  </defs>
  <sodipodi:namedview
     id="base"
     pagecolor="#ffffff"
     bordercolor="#666666"
     borderopacity="1.0"
     inkscape:pageopacity="0.0"
     inkscape:pageshadow="2"
     inkscape:zoom="0.35"
     inkscape:cx="-263.1662"
     inkscape:cy="406.47794"
     inkscape:document-units="px"
     inkscape:current-layer="layer1"
     showgrid="false"
     width="500px"
     showguides="true"
     inkscape:guide-bbox="true"
     inkscape:window-width="1854"
     inkscape:window-height="1176"
     inkscape:window-x="66"
     inkscape:window-y="24"
     inkscape:window-maximized="1"
     fit-margin-top="0"
     fit-margin-left="0"
     fit-margin-right="0"
     fit-margin-bottom="0" />
  <metadata
     id="metadata7">
    <rdf:RDF>
      <cc:Work
         rdf:about="">
        <dc:format>image/svg+xml</dc:format>
        <dc:type
           rdf:resource="http://purl.org/dc/dcmitype/StillImage" />
        <dc:title></dc:title>
      </cc:Work>
    </rdf:RDF>
  </metadata>
  <g
     inkscape:groupmode="layer"
     id="layer5"
     inkscape:label="bg2"
     transform="translate(-178.51725,-182.15752)" />
  <g
     inkscape:label="bg"
     inkscape:groupmode="layer"
     id="layer1"
     transform="translate(-178.51725,-490.42521)"
     style="display:inline">
    <path
       inkscape:connector-curvature="0"
       id="path3828-9"
       style="font-size:123.75899506px;font-style:normal;font-weight:normal;line-height:125%;letter-spacing:0px;word-spacing:0px;fill:#000000;fill-opacity:1;stroke:none;display:inline;font-family:Dustismo;-inkscape-font-specification:Dustismo"
       d="m 501.92002,788.6034 c 0.4075,9.6437 4.1427,18.0309 11.2057,25.1618 7.1987,7.3346 15.5859,11.0019 25.1617,11.0018 6.995,10e-5 13.8881,-2.1392 20.6795,-6.4177 6.7912,-4.2785 11.6809,-9.5757 14.6692,-15.8916 l 13.243,2.343 c -3.8033,9.4399 -10.3568,17.3517 -19.6608,23.7355 -9.2362,6.3158 -18.8799,9.4738 -28.9309,9.4739 -13.5147,-10e-5 -25.1278,-5.0935 -34.8393,-15.2804 -9.7116,-10.187 -14.5673,-22.0717 -14.5673,-35.6543 0,-13.5825 4.8557,-25.4673 14.5673,-35.6543 9.7115,-10.2547 21.3246,-15.3821 34.8393,-15.3822 13.9221,10e-5 25.637,5.3312 35.1449,15.9935 9.1682,10.2549 13.7523,22.4452 13.7524,36.571 l -85.2647,0 m 36.3674,-39.3215 c -7.4705,1e-4 -14.4994,2.6147 -21.087,7.8439 -6.18,4.8898 -10.6963,10.968 -13.5486,18.2346 l 68.2525,0 c -2.445,-7.3345 -6.6895,-13.4806 -12.7337,-18.4383 -6.3839,-5.0934 -13.3449,-7.6401 -20.8832,-7.6402"
       inkscape:export-filename="/work/gossow/recognition_kitchen/ecto/doc/source/art/ecto210.png"
       inkscape:export-xdpi="27.18"
       inkscape:export-ydpi="27.18" />
    <path
       inkscape:connector-curvature="0"
       id="path3830-68"
       style="font-size:123.75899506px;font-style:normal;font-weight:normal;line-height:125%;letter-spacing:0px;word-spacing:0px;fill:#000000;fill-opacity:1;stroke:none;display:inline;font-family:Dustismo;-inkscape-font-specification:Dustismo"
       d="m 651.97362,736.0389 c 9.236,10e-5 17.7591,2.5807 25.5692,7.742 7.5382,4.9578 13.4806,11.6811 17.8271,20.1702 l -15.4842,0 c -7.2667,-9.7794 -16.5708,-14.6691 -27.9121,-14.6692 -9.9833,1e-4 -18.4384,3.8711 -25.3655,11.6131 -6.7234,7.4026 -10.0851,16.1633 -10.0851,26.2823 0,10.0511 3.3617,18.7779 10.0851,26.1804 6.995,7.6062 15.4501,11.4094 25.3655,11.4093 10.1868,10e-5 19.2192,-4.4822 27.0972,-13.4467 l 15.7897,0 c -9.9832,17.7932 -24.2789,26.6897 -42.8869,26.6898 -13.4468,-10e-5 -24.9581,-5.1614 -34.5337,-15.4842 -9.4399,-10.119 -14.1599,-21.9358 -14.1599,-35.4505 0,-13.5825 4.72,-25.4673 14.1599,-35.6543 9.5077,-10.2547 21.0189,-15.3821 34.5337,-15.3822"
       inkscape:export-filename="/work/gossow/recognition_kitchen/ecto/doc/source/art/ecto210.png"
       inkscape:export-xdpi="27.18"
       inkscape:export-ydpi="27.18" />
    <path
       inkscape:connector-curvature="0"
       id="path3832-0"
       style="font-size:123.75899506px;font-style:normal;font-weight:normal;line-height:125%;letter-spacing:0px;word-spacing:0px;fill:#000000;fill-opacity:1;stroke:none;display:inline;font-family:Dustismo;-inkscape-font-specification:Dustismo"
       d="m 739.68302,738.28 24.5506,0 0,13.243 -24.5506,0 0,60.6122 c 0,7.1309 4.9577,10.6963 14.873,10.6963 1.2224,0 2.9202,-0.034 5.0934,-0.1018 2.1732,-0.1359 3.7012,-0.2037 4.5842,-0.2037 l 0,13.2429 -14.3636,0 c -6.6555,0 -12.2244,-2.275 -16.7066,-6.8252 -4.4823,-4.5501 -6.7234,-10.1529 -6.7234,-16.8084 l 0,-60.6122 -15.2804,0 0,-13.243 c 7.6063,0 12.2583,-1.7317 13.9561,-5.1954 0.8829,-1.7656 1.3243,-7.0289 1.3243,-15.7897 l 13.243,0 0,20.9851"
       inkscape:export-filename="/work/gossow/recognition_kitchen/ecto/doc/source/art/ecto210.png"
       inkscape:export-xdpi="27.18"
       inkscape:export-ydpi="27.18" />
    <path
       inkscape:connector-curvature="0"
       id="path3834-2"
       style="font-size:123.75899506px;font-style:normal;font-weight:normal;line-height:125%;letter-spacing:0px;word-spacing:0px;fill:#000000;fill-opacity:1;stroke:none;display:inline;font-family:Dustismo;-inkscape-font-specification:Dustismo"
       d="m 824.84582,749.2819 c -9.9833,1e-4 -18.4384,3.8711 -25.3655,11.6131 -6.7234,7.4705 -10.085,16.2312 -10.085,26.2823 0,10.0511 3.3616,18.7779 10.085,26.1804 6.995,7.6062 15.4502,11.4094 25.3655,11.4093 9.9152,10e-5 18.4043,-3.8031 25.4673,-11.4093 6.8591,-7.4704 10.2887,-16.1972 10.2888,-26.1804 -10e-5,-10.0511 -3.4636,-18.8797 -10.3906,-26.4861 -6.9272,-7.6061 -15.3824,-11.4092 -25.3655,-11.4093 m 0,-13.243 c 13.5146,10e-5 25.0598,5.1275 34.6356,15.3822 9.5756,10.255 14.3634,22.1737 14.3635,35.7562 -10e-5,13.5147 -4.754,25.3315 -14.2617,35.4505 -9.7116,10.2548 -21.2907,15.3822 -34.7374,15.3823 -13.4468,-10e-5 -24.958,-5.1614 -34.5337,-15.4842 -9.4399,-10.119 -14.1598,-21.9358 -14.1598,-35.4505 0,-13.5825 4.7199,-25.4673 14.1598,-35.6543 9.5078,-10.2547 21.019,-15.3821 34.5337,-15.3822"
       sodipodi:nodetypes="ccscsccccccccccscc"
       inkscape:export-filename="/work/gossow/recognition_kitchen/ecto/doc/source/art/ecto210.png"
       inkscape:export-xdpi="27.18"
       inkscape:export-ydpi="27.18" />
    <path
       style="fill:#3f9eff;fill-opacity:1;stroke:none;display:inline"
       d="m 261.24882,547.77527 c 42.3764,44.18573 72.2886,113.65953 48.1114,145.62723 -24.1771,31.9676 -42.2323,52.4957 -89.7812,58.2952 -68.471,7.1532 -38.607,62.5089 -1.8733,37.9232 36.7336,-24.5857 94.0438,-102.5793 116.8149,-88.733 17.7707,10.8057 43.5829,95.3746 60.6388,145.2678 17.0559,49.8932 62.9216,11.748 33.7448,-20.8084 -29.1768,-32.5564 -68.9099,-54.11 -73.5725,-117.3225 -4.6626,-63.2124 183.3987,-62.3594 235.0607,-57.3499 51.6619,5.0095 41.6454,-50.3235 -4.1913,-36.154 -45.8366,14.1694 -202.7299,54.0948 -218.7354,46.1643 -16.0054,-7.9306 -22.0387,-83.0656 20.7774,-127.01977 42.8161,-43.95411 -21.0785,-62.55842 -27.6044,-16.43464 -10.0566,71.07771 -9.3787,137.49511 -20.6781,134.67021 -22.5989,-5.6498 -47.2183,-65.9805 -47.99,-118.0129 -0.7718,-52.03238 -73.0982,-30.29856 -30.7218,13.88717 z"
       id="path4323-0"
       inkscape:connector-curvature="0"
       sodipodi:nodetypes="zzczszzzzzzzsszz"
       inkscape:export-filename="/work/gossow/recognition_kitchen/ecto/doc/source/art/ecto210.png"
       inkscape:export-xdpi="27.18"
       inkscape:export-ydpi="27.18" />
    <path
       sodipodi:type="arc"
       style="fill:#000000;fill-opacity:1;stroke:none;display:inline"
       id="path3840-57"
       sodipodi:cx="194.20183"
       sodipodi:cy="69.937759"
       sodipodi:rx="8.8388348"
       sodipodi:ry="8.8388348"
       d="m 203.04066,69.937759 c 0,4.881554 -3.95728,8.838835 -8.83883,8.838835 -4.88156,0 -8.83884,-3.957281 -8.83884,-8.838835 0,-4.881553 3.95728,-8.838834 8.83884,-8.838834 4.88155,0 8.83883,3.957281 8.83883,8.838834 z"
       transform="matrix(1.6857632,0,0,1.6857632,56.148626,392.09289)"
       inkscape:export-filename="/work/gossow/recognition_kitchen/ecto/doc/source/art/ecto210.png"
       inkscape:export-xdpi="27.18"
       inkscape:export-ydpi="27.18" />
    <path
       sodipodi:type="arc"
       style="fill:#000000;fill-opacity:1;stroke:none;display:inline"
       id="path3840-8-1"
       sodipodi:cx="194.20183"
       sodipodi:cy="69.937759"
       sodipodi:rx="8.8388348"
       sodipodi:ry="8.8388348"
       d="m 203.04066,69.937759 c 0,4.881554 -3.95728,8.838835 -8.83883,8.838835 -4.88156,0 -8.83884,-3.957281 -8.83884,-8.838835 0,-4.881553 3.95728,-8.838834 8.83884,-8.838834 4.88155,0 8.83883,3.957281 8.83883,8.838834 z"
       transform="matrix(1.6857632,0,0,1.6857632,-60.726554,405.32351)"
       inkscape:export-filename="/work/gossow/recognition_kitchen/ecto/doc/source/art/ecto210.png"
       inkscape:export-xdpi="27.18"
       inkscape:export-ydpi="27.18" />
    <path
       sodipodi:type="arc"
       style="fill:#000000;fill-opacity:1;stroke:none;display:inline"
       id="path3840-2-0"
       sodipodi:cx="194.20183"
       sodipodi:cy="69.937759"
       sodipodi:rx="8.8388348"
       sodipodi:ry="8.8388348"
       d="m 203.04066,69.937759 c 0,4.881554 -3.95728,8.838835 -8.83883,8.838835 -4.88156,0 -8.83884,-3.957281 -8.83884,-8.838835 0,-4.881553 3.95728,-8.838834 8.83884,-8.838834 4.88155,0 8.83883,3.957281 8.83883,8.838834 z"
       transform="matrix(1.6857632,0,0,1.6857632,-129.41154,658.4704)"
       inkscape:export-filename="/work/gossow/recognition_kitchen/ecto/doc/source/art/ecto210.png"
       inkscape:export-xdpi="27.18"
       inkscape:export-ydpi="27.18" />
    <path
       sodipodi:type="arc"
       style="fill:#000000;fill-opacity:1;stroke:none;display:inline"
       id="path3840-5-9"
       sodipodi:cx="194.20183"
       sodipodi:cy="69.937759"
       sodipodi:rx="8.8388348"
       sodipodi:ry="8.8388348"
       d="m 203.04066,69.937759 c 0,4.881554 -3.95728,8.838835 -8.83883,8.838835 -4.88156,0 -8.83884,-3.957281 -8.83884,-8.838835 0,-4.881553 3.95728,-8.838834 8.83884,-8.838834 4.88155,0 8.83883,3.957281 8.83883,8.838834 z"
       transform="matrix(1.6857632,0,0,1.6857632,90.042425,730.2884)"
       inkscape:export-filename="/work/gossow/recognition_kitchen/ecto/doc/source/art/ecto210.png"
       inkscape:export-xdpi="27.18"
       inkscape:export-ydpi="27.18" />
    <path
       sodipodi:type="arc"
       style="fill:#000000;fill-opacity:1;stroke:none;display:inline"
       id="path3840-21-20"
       sodipodi:cx="194.20183"
       sodipodi:cy="69.937759"
       sodipodi:rx="8.8388348"
       sodipodi:ry="8.8388348"
       d="m 203.04066,69.937759 c 0,4.881554 -3.95728,8.838835 -8.83883,8.838835 -4.88156,0 -8.83884,-3.957281 -8.83884,-8.838835 0,-4.881553 3.95728,-8.838834 8.83884,-8.838834 4.88155,0 8.83883,3.957281 8.83883,8.838834 z"
       transform="matrix(2.2571918,0,0,2.2571918,-97.376494,517.21898)"
       inkscape:export-filename="/work/gossow/recognition_kitchen/ecto/doc/source/art/ecto210.png"
       inkscape:export-xdpi="27.18"
       inkscape:export-ydpi="27.18" />
    <path
       sodipodi:type="arc"
       style="fill:#000000;fill-opacity:1;stroke:none;display:inline"
       id="path3840-21-2-7"
       sodipodi:cx="194.20183"
       sodipodi:cy="69.937759"
       sodipodi:rx="8.8388348"
       sodipodi:ry="8.8388348"
       d="m 203.04066,69.937759 c 0,4.881554 -3.95728,8.838835 -8.83883,8.838835 -4.88156,0 -8.83884,-3.957281 -8.83884,-8.838835 0,-4.881553 3.95728,-8.838834 8.83884,-8.838834 4.88155,0 8.83883,3.957281 8.83883,8.838834 z"
       transform="matrix(1.6857632,0,0,1.6857632,275.51352,514.22909)"
       inkscape:export-filename="/work/gossow/recognition_kitchen/ecto/doc/source/art/ecto210.png"
       inkscape:export-xdpi="27.18"
       inkscape:export-ydpi="27.18" />
    <path
       sodipodi:type="arc"
       style="fill:#ffffff;fill-opacity:1;stroke:none"
       id="path4325-7-9-04"
       sodipodi:cx="69.953064"
       sodipodi:cy="240.65353"
       sodipodi:rx="19.950512"
       sodipodi:ry="18.435284"
       d="m 89.903576,240.65353 c 0,10.18153 -8.932149,18.43529 -19.950512,18.43529 -11.018364,0 -19.950512,-8.25376 -19.950512,-18.43529 0,-10.18152 8.932148,-18.43528 19.950512,-18.43528 11.018363,0 19.950512,8.25376 19.950512,18.43528 z"
       transform="matrix(1.9470644e-8,-0.39943169,0.43226169,0,160.57722,549.96487)"
       inkscape:export-filename="/work/gossow/recognition_kitchen/ecto/doc/source/art/ecto210.png"
       inkscape:export-xdpi="27.18"
       inkscape:export-ydpi="27.18" />
    <path
       sodipodi:type="arc"
       style="fill:#ffffff;fill-opacity:1;stroke:none"
       id="path4325-7-9-4-97"
       sodipodi:cx="69.953064"
       sodipodi:cy="240.65353"
       sodipodi:rx="19.950512"
       sodipodi:ry="18.435284"
       d="m 89.903576,240.65353 c 0,10.18153 -8.932149,18.43529 -19.950512,18.43529 -11.018364,0 -19.950512,-8.25376 -19.950512,-18.43529 0,-10.18152 8.932148,-18.43528 19.950512,-18.43528 11.018363,0 19.950512,8.25376 19.950512,18.43528 z"
       transform="matrix(1.9470644e-8,-0.39943169,0.43226169,0,92.238525,802.6417)"
       inkscape:export-filename="/work/gossow/recognition_kitchen/ecto/doc/source/art/ecto210.png"
       inkscape:export-xdpi="27.18"
       inkscape:export-ydpi="27.18" />
    <path
       sodipodi:type="arc"
       style="fill:#ffffff;fill-opacity:1;stroke:none"
       id="path4325-7-9-4-1-4"
       sodipodi:cx="69.953064"
       sodipodi:cy="240.65353"
       sodipodi:rx="19.950512"
       sodipodi:ry="18.435284"
       d="m 89.903576,240.65353 c 0,10.18153 -8.932149,18.43529 -19.950512,18.43529 -11.018364,0 -19.950512,-8.25376 -19.950512,-18.43529 0,-10.18152 8.932148,-18.43528 19.950512,-18.43528 11.018363,0 19.950512,8.25376 19.950512,18.43528 z"
       transform="matrix(2.6070671e-8,-0.53482833,0.57878682,0,197.86912,708.6768)"
       inkscape:export-filename="/work/gossow/recognition_kitchen/ecto/doc/source/art/ecto210.png"
       inkscape:export-xdpi="27.18"
       inkscape:export-ydpi="27.18" />
    <path
       sodipodi:type="arc"
       style="fill:#ffffff;fill-opacity:1;stroke:none"
       id="path4325-7-9-4-9-5"
       sodipodi:cx="69.953064"
       sodipodi:cy="240.65353"
       sodipodi:rx="19.950512"
       sodipodi:ry="18.435284"
       d="m 89.903576,240.65353 c 0,10.18153 -8.932149,18.43529 -19.950512,18.43529 -11.018364,0 -19.950512,-8.25376 -19.950512,-18.43529 0,-10.18152 8.932148,-18.43528 19.950512,-18.43528 11.018363,0 19.950512,8.25376 19.950512,18.43528 z"
       transform="matrix(1.9470644e-8,-0.39943169,0.43226169,0,311.39542,873.5741)"
       inkscape:export-filename="/work/gossow/recognition_kitchen/ecto/doc/source/art/ecto210.png"
       inkscape:export-xdpi="27.18"
       inkscape:export-ydpi="27.18" />
    <path
       sodipodi:type="arc"
       style="fill:#ffffff;fill-opacity:1;stroke:none"
       id="path4325-7-9-4-9-0-8"
       sodipodi:cx="69.953064"
       sodipodi:cy="240.65353"
       sodipodi:rx="19.950512"
       sodipodi:ry="18.435284"
       d="m 89.903576,240.65353 c 0,10.18153 -8.932149,18.43529 -19.950512,18.43529 -11.018364,0 -19.950512,-8.25376 -19.950512,-18.43529 0,-10.18152 8.932148,-18.43528 19.950512,-18.43528 11.018363,0 19.950512,8.25376 19.950512,18.43528 z"
       transform="matrix(1.9470644e-8,-0.39943169,0.43226169,0,279.50162,534.26426)"
       inkscape:export-filename="/work/gossow/recognition_kitchen/ecto/doc/source/art/ecto210.png"
       inkscape:export-xdpi="27.18"
       inkscape:export-ydpi="27.18" />
    <path
       sodipodi:type="arc"
       style="fill:#ffffff;fill-opacity:1;stroke:none"
       id="path4325-7-9-4-9-0-6-0"
       sodipodi:cx="69.953064"
       sodipodi:cy="240.65353"
       sodipodi:rx="19.950512"
       sodipodi:ry="18.435284"
       d="m 89.903576,240.65353 c 0,10.18153 -8.932149,18.43529 -19.950512,18.43529 -11.018364,0 -19.950512,-8.25376 -19.950512,-18.43529 0,-10.18152 8.932148,-18.43528 19.950512,-18.43528 11.018363,0 19.950512,8.25376 19.950512,18.43528 z"
       transform="matrix(1.9470644e-8,-0.39943169,0.43226169,0,494.60932,657.4805)"
       inkscape:export-xdpi="27.18"
       inkscape:export-ydpi="27.18"
       inkscape:export-filename="/work/gossow/recognition_kitchen/ecto/doc/source/art/ecto210.png" />
  </g>
  <g
     inkscape:groupmode="layer"
     id="layer2"
     inkscape:label="cells oval"
     style="display:none"
     transform="translate(-178.51725,261.93697)">
    <path
       sodipodi:type="arc"
       style="fill:#000000;fill-opacity:1;stroke:none"
       id="path4325"
       sodipodi:cx="69.953064"
       sodipodi:cy="240.65353"
       sodipodi:rx="19.950512"
       sodipodi:ry="18.435284"
       d="m 89.903576,240.65353 c 0,10.18153 -8.932149,18.43529 -19.950512,18.43529 -11.018364,0 -19.950512,-8.25376 -19.950512,-18.43529 0,-10.18152 8.932148,-18.43528 19.950512,-18.43528 11.018363,0 19.950512,8.25376 19.950512,18.43528 z"
       transform="matrix(0.65087537,-0.23689926,0.14992664,0.41192005,-6.3355703,130.20574)" />
    <path
       sodipodi:type="arc"
       style="fill:#000000;fill-opacity:1;stroke:none"
       id="path4325-7"
       sodipodi:cx="69.953064"
       sodipodi:cy="240.65353"
       sodipodi:rx="19.950512"
       sodipodi:ry="18.435284"
       d="m 89.903576,240.65353 c 0,10.18153 -8.932149,18.43529 -19.950512,18.43529 -11.018364,0 -19.950512,-8.25376 -19.950512,-18.43529 0,-10.18152 8.932148,-18.43528 19.950512,-18.43528 11.018363,0 19.950512,8.25376 19.950512,18.43528 z"
       transform="matrix(-0.34632354,-0.59984998,0.37962757,-0.21917808,46.509836,162.87732)" />
    <path
       sodipodi:type="arc"
       style="fill:#000000;fill-opacity:1;stroke:none"
       id="path4325-7-0"
       sodipodi:cx="69.953064"
       sodipodi:cy="240.65353"
       sodipodi:rx="19.950512"
       sodipodi:ry="18.435284"
       d="m 89.903576,240.65353 c 0,10.18153 -8.932149,18.43529 -19.950512,18.43529 -11.018364,0 -19.950512,-8.25376 -19.950512,-18.43529 0,-10.18152 8.932148,-18.43528 19.950512,-18.43528 11.018363,0 19.950512,8.25376 19.950512,18.43528 z"
       transform="matrix(-0.34632354,0.59984998,-0.37962757,-0.21917808,303.47349,102.69324)" />
    <path
       sodipodi:type="arc"
       style="fill:#000000;fill-opacity:1;stroke:none"
       id="path4325-7-0-0"
       sodipodi:cx="69.953064"
       sodipodi:cy="240.65353"
       sodipodi:rx="19.950512"
       sodipodi:ry="18.435284"
       d="m 89.903576,240.65353 c 0,10.18153 -8.932149,18.43529 -19.950512,18.43529 -11.018364,0 -19.950512,-8.25376 -19.950512,-18.43529 0,-10.18152 8.932148,-18.43528 19.950512,-18.43528 11.018363,0 19.950512,8.25376 19.950512,18.43528 z"
       transform="matrix(0.6926471,0,0,0.43835616,257.5422,23.38871)" />
    <path
       sodipodi:type="arc"
       style="fill:#000000;fill-opacity:1;stroke:none"
       id="path4325-7-0-8"
       sodipodi:cx="69.953064"
       sodipodi:cy="240.65353"
       sodipodi:rx="19.950512"
       sodipodi:ry="18.435284"
       d="m 89.903576,240.65353 c 0,10.18153 -8.932149,18.43529 -19.950512,18.43529 -11.018364,0 -19.950512,-8.25376 -19.950512,-18.43529 0,-10.18152 8.932148,-18.43528 19.950512,-18.43528 11.018363,0 19.950512,8.25376 19.950512,18.43528 z"
       transform="matrix(-0.23689925,-0.65087536,0.41192005,-0.14992664,110.50022,332.72032)" />
    <path
       sodipodi:type="arc"
       style="fill:#000000;fill-opacity:1;stroke:none"
       id="path4325-7-0-2"
       sodipodi:cx="69.953064"
       sodipodi:cy="240.65353"
       sodipodi:rx="19.950512"
       sodipodi:ry="18.435284"
       d="m 89.903576,240.65353 c 0,10.18153 -8.932149,18.43529 -19.950512,18.43529 -11.018364,0 -19.950512,-8.25376 -19.950512,-18.43529 0,-10.18152 8.932148,-18.43528 19.950512,-18.43528 11.018363,0 19.950512,8.25376 19.950512,18.43528 z"
       transform="matrix(0.12027691,-0.68212423,0.43169654,0.07611975,40.250289,190.46161)" />
  </g>
  <g
     inkscape:groupmode="layer"
     id="layer4"
     inkscape:label="cells round"
     transform="translate(-178.51725,261.93697)" />
  <g
     inkscape:groupmode="layer"
     id="layer3"
     inkscape:label="cores"
     transform="translate(-178.51725,261.93697)" />
</svg>
