<?xml version="1.0" encoding="UTF-8" standalone="no"?>
<!-- Created with Inkscape (http://www.inkscape.org/) -->

<svg
   xmlns:dc="http://purl.org/dc/elements/1.1/"
   xmlns:cc="http://creativecommons.org/ns#"
   xmlns:rdf="http://www.w3.org/1999/02/22-rdf-syntax-ns#"
   xmlns:svg="http://www.w3.org/2000/svg"
   xmlns="http://www.w3.org/2000/svg"
   xmlns:sodipodi="http://sodipodi.sourceforge.net/DTD/sodipodi-0.dtd"
   xmlns:inkscape="http://www.inkscape.org/namespaces/inkscape"
   width="894.59998"
   height="204.60001"
   id="svg2"
   version="1.1"
   inkscape:version="0.48.1 r9760"
   sodipodi:docname="ectofourblockfewer.svg"
   inkscape:export-filename="/home/troy/ectofourblockfewer.png"
   inkscape:export-xdpi="81.245766"
   inkscape:export-ydpi="81.245766">
  <defs
     id="defs4" />
  <sodipodi:namedview
     id="base"
     pagecolor="#ffffff"
     bordercolor="#666666"
     borderopacity="1.0"
     inkscape:pageopacity="0.0"
     inkscape:pageshadow="2"
     inkscape:zoom="1.1681199"
     inkscape:cx="302.19502"
     inkscape:cy="58.16953"
     inkscape:document-units="px"
     inkscape:current-layer="layer1"
     showgrid="false"
     inkscape:snap-global="true"
     inkscape:window-width="1182"
     inkscape:window-height="672"
     inkscape:window-x="1370"
     inkscape:window-y="25"
     inkscape:window-maximized="0"
     fit-margin-top="4.8"
     fit-margin-left="4.8"
     fit-margin-right="4.8"
     fit-margin-bottom="4.8">
    <inkscape:grid
       type="xygrid"
       id="grid2985"
       empspacing="5"
       visible="true"
       enabled="true"
       snapvisiblegridlinesonly="true" />
  </sodipodi:namedview>
  <metadata
     id="metadata7">
    <rdf:RDF>
      <cc:Work
         rdf:about="">
        <dc:format>image/svg+xml</dc:format>
        <dc:type
           rdf:resource="http://purl.org/dc/dcmitype/StillImage" />
        <dc:title />
      </cc:Work>
    </rdf:RDF>
  </metadata>
  <g
     inkscape:label="Layer 1"
     inkscape:groupmode="layer"
     id="layer1"
     transform="translate(-10.2,-232.56218)">
    <path
       transform="translate(-90,60)"
       sodipodi:type="arc"
       style="fill:#2f3f70;fill-opacity:1;stroke:#0dab0d;stroke-opacity:1"
       id="path2989-6"
       sodipodi:cx="120"
       sodipodi:cy="247.36218"
       sodipodi:rx="15"
       sodipodi:ry="15"
       d="m 135,247.36218 c 0,8.28427 -6.71573,15 -15,15 -8.28427,0 -15,-6.71573 -15,-15 0,-8.28427 6.71573,-15 15,-15 8.28427,0 15,6.71573 15,15 z" />
    <path
       transform="translate(-90,115)"
       sodipodi:type="arc"
       style="fill:#2f3f70;fill-opacity:1;stroke:#0dab0d;stroke-opacity:1"
       id="path2989-9"
       sodipodi:cx="120"
       sodipodi:cy="247.36218"
       sodipodi:rx="15"
       sodipodi:ry="15"
       d="m 135,247.36218 c 0,8.28427 -6.71573,15 -15,15 -8.28427,0 -15,-6.71573 -15,-15 0,-8.28427 6.71573,-15 15,-15 8.28427,0 15,6.71573 15,15 z" />
    <path
       transform="translate(-35,5)"
       sodipodi:type="arc"
       style="fill:#2f3f70;fill-opacity:1;stroke:#0dab0d;stroke-opacity:1"
       id="path2989-3"
       sodipodi:cx="120"
       sodipodi:cy="247.36218"
       sodipodi:rx="15"
       sodipodi:ry="15"
       d="m 135,247.36218 c 0,8.28427 -6.71573,15 -15,15 -8.28427,0 -15,-6.71573 -15,-15 0,-8.28427 6.71573,-15 15,-15 8.28427,0 15,6.71573 15,15 z" />
    <path
       transform="translate(-35,60)"
       sodipodi:type="arc"
       style="fill:#2f3f70;fill-opacity:1;stroke:#0dab0d;stroke-opacity:1"
       id="path2989-6-3"
       sodipodi:cx="120"
       sodipodi:cy="247.36218"
       sodipodi:rx="15"
       sodipodi:ry="15"
       d="m 135,247.36218 c 0,8.28427 -6.71573,15 -15,15 -8.28427,0 -15,-6.71573 -15,-15 0,-8.28427 6.71573,-15 15,-15 8.28427,0 15,6.71573 15,15 z" />
    <path
       transform="translate(-35,170)"
       sodipodi:type="arc"
       style="fill:#2f3f70;fill-opacity:1;stroke:#0dab0d;stroke-opacity:1"
       id="path2989-4-7"
       sodipodi:cx="120"
       sodipodi:cy="247.36218"
       sodipodi:rx="15"
       sodipodi:ry="15"
       d="m 135,247.36218 c 0,8.28427 -6.71573,15 -15,15 -8.28427,0 -15,-6.71573 -15,-15 0,-8.28427 6.71573,-15 15,-15 8.28427,0 15,6.71573 15,15 z" />
    <path
       transform="translate(20,5)"
       sodipodi:type="arc"
       style="fill:#2f3f70;fill-opacity:1;stroke:#0dab0d;stroke-opacity:1"
       id="path2989-2"
       sodipodi:cx="120"
       sodipodi:cy="247.36218"
       sodipodi:rx="15"
       sodipodi:ry="15"
       d="m 135,247.36218 c 0,8.28427 -6.71573,15 -15,15 -8.28427,0 -15,-6.71573 -15,-15 0,-8.28427 6.71573,-15 15,-15 8.28427,0 15,6.71573 15,15 z" />
    <path
       transform="translate(20,60)"
       sodipodi:type="arc"
       style="fill:#2f3f70;fill-opacity:1;stroke:#0dab0d;stroke-opacity:1"
       id="path2989-6-6"
       sodipodi:cx="120"
       sodipodi:cy="247.36218"
       sodipodi:rx="15"
       sodipodi:ry="15"
       d="m 135,247.36218 c 0,8.28427 -6.71573,15 -15,15 -8.28427,0 -15,-6.71573 -15,-15 0,-8.28427 6.71573,-15 15,-15 8.28427,0 15,6.71573 15,15 z" />
    <path
       transform="translate(20,170)"
       sodipodi:type="arc"
       style="fill:#2f3f70;fill-opacity:1;stroke:#0dab0d;stroke-opacity:1"
       id="path2989-4-2"
       sodipodi:cx="120"
       sodipodi:cy="247.36218"
       sodipodi:rx="15"
       sodipodi:ry="15"
       d="m 135,247.36218 c 0,8.28427 -6.71573,15 -15,15 -8.28427,0 -15,-6.71573 -15,-15 0,-8.28427 6.71573,-15 15,-15 8.28427,0 15,6.71573 15,15 z" />
    <path
       transform="translate(75,5)"
       sodipodi:type="arc"
       style="fill:#2f3f70;fill-opacity:1;stroke:#0dab0d;stroke-opacity:1"
       id="path2989-65"
       sodipodi:cx="120"
       sodipodi:cy="247.36218"
       sodipodi:rx="15"
       sodipodi:ry="15"
       d="m 135,247.36218 c 0,8.28427 -6.71573,15 -15,15 -8.28427,0 -15,-6.71573 -15,-15 0,-8.28427 6.71573,-15 15,-15 8.28427,0 15,6.71573 15,15 z" />
    <path
       transform="translate(75,60)"
       sodipodi:type="arc"
       style="fill:#2f3f70;fill-opacity:1;stroke:#0dab0d;stroke-opacity:1"
       id="path2989-6-8"
       sodipodi:cx="120"
       sodipodi:cy="247.36218"
       sodipodi:rx="15"
       sodipodi:ry="15"
       d="m 135,247.36218 c 0,8.28427 -6.71573,15 -15,15 -8.28427,0 -15,-6.71573 -15,-15 0,-8.28427 6.71573,-15 15,-15 8.28427,0 15,6.71573 15,15 z" />
    <path
       transform="translate(75,170)"
       sodipodi:type="arc"
       style="fill:#2f3f70;fill-opacity:1;stroke:#0dab0d;stroke-opacity:1"
       id="path2989-4-9"
       sodipodi:cx="120"
       sodipodi:cy="247.36218"
       sodipodi:rx="15"
       sodipodi:ry="15"
       d="m 135,247.36218 c 0,8.28427 -6.71573,15 -15,15 -8.28427,0 -15,-6.71573 -15,-15 0,-8.28427 6.71573,-15 15,-15 8.28427,0 15,6.71573 15,15 z" />
    <path
       transform="translate(140,60)"
       sodipodi:type="arc"
       style="fill:#2f3f70;fill-opacity:1;stroke:#0dab0d;stroke-opacity:1"
       id="path2989-6-9"
       sodipodi:cx="120"
       sodipodi:cy="247.36218"
       sodipodi:rx="15"
       sodipodi:ry="15"
       d="m 135,247.36218 c 0,8.28427 -6.71573,15 -15,15 -8.28427,0 -15,-6.71573 -15,-15 0,-8.28427 6.71573,-15 15,-15 8.28427,0 15,6.71573 15,15 z" />
    <path
       transform="translate(140,115)"
       sodipodi:type="arc"
       style="fill:#2f3f70;fill-opacity:1;stroke:#0dab0d;stroke-opacity:1"
       id="path2989-9-35"
       sodipodi:cx="120"
       sodipodi:cy="247.36218"
       sodipodi:rx="15"
       sodipodi:ry="15"
       d="m 135,247.36218 c 0,8.28427 -6.71573,15 -15,15 -8.28427,0 -15,-6.71573 -15,-15 0,-8.28427 6.71573,-15 15,-15 8.28427,0 15,6.71573 15,15 z" />
    <path
       transform="translate(195,5)"
       sodipodi:type="arc"
       style="fill:#2f3f70;fill-opacity:1;stroke:#0dab0d;stroke-opacity:1"
       id="path2989-3-8"
       sodipodi:cx="120"
       sodipodi:cy="247.36218"
       sodipodi:rx="15"
       sodipodi:ry="15"
       d="m 135,247.36218 c 0,8.28427 -6.71573,15 -15,15 -8.28427,0 -15,-6.71573 -15,-15 0,-8.28427 6.71573,-15 15,-15 8.28427,0 15,6.71573 15,15 z" />
    <path
       transform="translate(195,170)"
       sodipodi:type="arc"
       style="fill:#2f3f70;fill-opacity:1;stroke:#0dab0d;stroke-opacity:1"
       id="path2989-4-7-9"
       sodipodi:cx="120"
       sodipodi:cy="247.36218"
       sodipodi:rx="15"
       sodipodi:ry="15"
       d="m 135,247.36218 c 0,8.28427 -6.71573,15 -15,15 -8.28427,0 -15,-6.71573 -15,-15 0,-8.28427 6.71573,-15 15,-15 8.28427,0 15,6.71573 15,15 z" />
    <path
       transform="translate(250,5)"
       sodipodi:type="arc"
       style="fill:#2f3f70;fill-opacity:1;stroke:#0dab0d;stroke-opacity:1"
       id="path2989-2-7"
       sodipodi:cx="120"
       sodipodi:cy="247.36218"
       sodipodi:rx="15"
       sodipodi:ry="15"
       d="m 135,247.36218 c 0,8.28427 -6.71573,15 -15,15 -8.28427,0 -15,-6.71573 -15,-15 0,-8.28427 6.71573,-15 15,-15 8.28427,0 15,6.71573 15,15 z" />
    <path
       transform="translate(250,170)"
       sodipodi:type="arc"
       style="fill:#2f3f70;fill-opacity:1;stroke:#0dab0d;stroke-opacity:1"
       id="path2989-4-2-5"
       sodipodi:cx="120"
       sodipodi:cy="247.36218"
       sodipodi:rx="15"
       sodipodi:ry="15"
       d="m 135,247.36218 c 0,8.28427 -6.71573,15 -15,15 -8.28427,0 -15,-6.71573 -15,-15 0,-8.28427 6.71573,-15 15,-15 8.28427,0 15,6.71573 15,15 z" />
    <path
       transform="translate(305,5)"
       sodipodi:type="arc"
       style="fill:#2f3f70;fill-opacity:1;stroke:#0dab0d;stroke-opacity:1"
       id="path2989-65-3"
       sodipodi:cx="120"
       sodipodi:cy="247.36218"
       sodipodi:rx="15"
       sodipodi:ry="15"
       d="m 135,247.36218 c 0,8.28427 -6.71573,15 -15,15 -8.28427,0 -15,-6.71573 -15,-15 0,-8.28427 6.71573,-15 15,-15 8.28427,0 15,6.71573 15,15 z" />
    <path
       transform="translate(305,170)"
       sodipodi:type="arc"
       style="fill:#2f3f70;fill-opacity:1;stroke:#0dab0d;stroke-opacity:1"
       id="path2989-4-9-0"
       sodipodi:cx="120"
       sodipodi:cy="247.36218"
       sodipodi:rx="15"
       sodipodi:ry="15"
       d="m 135,247.36218 c 0,8.28427 -6.71573,15 -15,15 -8.28427,0 -15,-6.71573 -15,-15 0,-8.28427 6.71573,-15 15,-15 8.28427,0 15,6.71573 15,15 z" />
    <path
       transform="translate(370,5)"
       sodipodi:type="arc"
       style="fill:#2f3f70;fill-opacity:1;stroke:#0dab0d;stroke-opacity:1"
       id="path2989-90"
       sodipodi:cx="120"
       sodipodi:cy="247.36218"
       sodipodi:rx="15"
       sodipodi:ry="15"
       d="m 135,247.36218 c 0,8.28427 -6.71573,15 -15,15 -8.28427,0 -15,-6.71573 -15,-15 0,-8.28427 6.71573,-15 15,-15 8.28427,0 15,6.71573 15,15 z" />
    <path
       transform="translate(425,5)"
       sodipodi:type="arc"
       style="fill:#2f3f70;fill-opacity:1;stroke:#0dab0d;stroke-opacity:1"
       id="path2989-3-4"
       sodipodi:cx="120"
       sodipodi:cy="247.36218"
       sodipodi:rx="15"
       sodipodi:ry="15"
       d="m 135,247.36218 c 0,8.28427 -6.71573,15 -15,15 -8.28427,0 -15,-6.71573 -15,-15 0,-8.28427 6.71573,-15 15,-15 8.28427,0 15,6.71573 15,15 z" />
    <path
       transform="translate(480,5)"
       sodipodi:type="arc"
       style="fill:#2f3f70;fill-opacity:1;stroke:#0dab0d;stroke-opacity:1"
       id="path2989-2-74"
       sodipodi:cx="120"
       sodipodi:cy="247.36218"
       sodipodi:rx="15"
       sodipodi:ry="15"
       d="m 135,247.36218 c 0,8.28427 -6.71573,15 -15,15 -8.28427,0 -15,-6.71573 -15,-15 0,-8.28427 6.71573,-15 15,-15 8.28427,0 15,6.71573 15,15 z" />
    <path
       transform="translate(535,5)"
       sodipodi:type="arc"
       style="fill:#2f3f70;fill-opacity:1;stroke:#0dab0d;stroke-opacity:1"
       id="path2989-65-6"
       sodipodi:cx="120"
       sodipodi:cy="247.36218"
       sodipodi:rx="15"
       sodipodi:ry="15"
       d="m 135,247.36218 c 0,8.28427 -6.71573,15 -15,15 -8.28427,0 -15,-6.71573 -15,-15 0,-8.28427 6.71573,-15 15,-15 8.28427,0 15,6.71573 15,15 z" />
    <path
       transform="translate(600,60)"
       sodipodi:type="arc"
       style="fill:#2f3f70;fill-opacity:1;stroke:#0dab0d;stroke-opacity:1"
       id="path2989-6-9-6"
       sodipodi:cx="120"
       sodipodi:cy="247.36218"
       sodipodi:rx="15"
       sodipodi:ry="15"
       d="m 135,247.36218 c 0,8.28427 -6.71573,15 -15,15 -8.28427,0 -15,-6.71573 -15,-15 0,-8.28427 6.71573,-15 15,-15 8.28427,0 15,6.71573 15,15 z" />
    <path
       transform="translate(600,115)"
       sodipodi:type="arc"
       style="fill:#2f3f70;fill-opacity:1;stroke:#0dab0d;stroke-opacity:1"
       id="path2989-9-35-2"
       sodipodi:cx="120"
       sodipodi:cy="247.36218"
       sodipodi:rx="15"
       sodipodi:ry="15"
       d="m 135,247.36218 c 0,8.28427 -6.71573,15 -15,15 -8.28427,0 -15,-6.71573 -15,-15 0,-8.28427 6.71573,-15 15,-15 8.28427,0 15,6.71573 15,15 z" />
    <path
       transform="translate(655,5)"
       sodipodi:type="arc"
       style="fill:#2f3f70;fill-opacity:1;stroke:#0dab0d;stroke-opacity:1"
       id="path2989-3-8-9"
       sodipodi:cx="120"
       sodipodi:cy="247.36218"
       sodipodi:rx="15"
       sodipodi:ry="15"
       d="m 135,247.36218 c 0,8.28427 -6.71573,15 -15,15 -8.28427,0 -15,-6.71573 -15,-15 0,-8.28427 6.71573,-15 15,-15 8.28427,0 15,6.71573 15,15 z" />
    <path
       transform="translate(655,170)"
       sodipodi:type="arc"
       style="fill:#2f3f70;fill-opacity:1;stroke:#0dab0d;stroke-opacity:1"
       id="path2989-4-7-9-7"
       sodipodi:cx="120"
       sodipodi:cy="247.36218"
       sodipodi:rx="15"
       sodipodi:ry="15"
       d="m 135,247.36218 c 0,8.28427 -6.71573,15 -15,15 -8.28427,0 -15,-6.71573 -15,-15 0,-8.28427 6.71573,-15 15,-15 8.28427,0 15,6.71573 15,15 z" />
    <path
       transform="translate(710,5)"
       sodipodi:type="arc"
       style="fill:#2f3f70;fill-opacity:1;stroke:#0dab0d;stroke-opacity:1"
       id="path2989-2-7-0"
       sodipodi:cx="120"
       sodipodi:cy="247.36218"
       sodipodi:rx="15"
       sodipodi:ry="15"
       d="m 135,247.36218 c 0,8.28427 -6.71573,15 -15,15 -8.28427,0 -15,-6.71573 -15,-15 0,-8.28427 6.71573,-15 15,-15 8.28427,0 15,6.71573 15,15 z" />
    <path
       transform="translate(710,170)"
       sodipodi:type="arc"
       style="fill:#2f3f70;fill-opacity:1;stroke:#0dab0d;stroke-opacity:1"
       id="path2989-4-2-5-1"
       sodipodi:cx="120"
       sodipodi:cy="247.36218"
       sodipodi:rx="15"
       sodipodi:ry="15"
       d="m 135,247.36218 c 0,8.28427 -6.71573,15 -15,15 -8.28427,0 -15,-6.71573 -15,-15 0,-8.28427 6.71573,-15 15,-15 8.28427,0 15,6.71573 15,15 z" />
    <path
       transform="translate(765,60)"
       sodipodi:type="arc"
       style="fill:#2f3f70;fill-opacity:1;stroke:#0dab0d;stroke-opacity:1"
       id="path2989-6-8-4-7"
       sodipodi:cx="120"
       sodipodi:cy="247.36218"
       sodipodi:rx="15"
       sodipodi:ry="15"
       d="m 135,247.36218 c 0,8.28427 -6.71573,15 -15,15 -8.28427,0 -15,-6.71573 -15,-15 0,-8.28427 6.71573,-15 15,-15 8.28427,0 15,6.71573 15,15 z" />
    <path
       transform="translate(765,115)"
       sodipodi:type="arc"
       style="fill:#2f3f70;fill-opacity:1;stroke:#0dab0d;stroke-opacity:1"
       id="path2989-9-7-9-7"
       sodipodi:cx="120"
       sodipodi:cy="247.36218"
       sodipodi:rx="15"
       sodipodi:ry="15"
       d="m 135,247.36218 c 0,8.28427 -6.71573,15 -15,15 -8.28427,0 -15,-6.71573 -15,-15 0,-8.28427 6.71573,-15 15,-15 8.28427,0 15,6.71573 15,15 z" />
    <path
       transform="translate(305.2,59.800003)"
       sodipodi:type="arc"
       style="fill:#2f3f70;fill-opacity:1;stroke:#0dab0d;stroke-opacity:1"
       id="path2989-4-9-0-0"
       sodipodi:cx="120"
       sodipodi:cy="247.36218"
       sodipodi:rx="15"
       sodipodi:ry="15"
       d="m 135,247.36218 c 0,8.28427 -6.71573,15 -15,15 -8.28427,0 -15,-6.71573 -15,-15 0,-8.28427 6.71573,-15 15,-15 8.28427,0 15,6.71573 15,15 z" />
    <path
       transform="translate(425.2,59.800003)"
       sodipodi:type="arc"
       style="fill:#2f3f70;fill-opacity:1;stroke:#0dab0d;stroke-opacity:1"
       id="path2989-6-8-0-7"
       sodipodi:cx="120"
       sodipodi:cy="247.36218"
       sodipodi:rx="15"
       sodipodi:ry="15"
       d="m 135,247.36218 c 0,8.28427 -6.71573,15 -15,15 -8.28427,0 -15,-6.71573 -15,-15 0,-8.28427 6.71573,-15 15,-15 8.28427,0 15,6.71573 15,15 z" />
    <path
       transform="translate(425.2,114.8)"
       sodipodi:type="arc"
       style="fill:#2f3f70;fill-opacity:1;stroke:#0dab0d;stroke-opacity:1"
       id="path2989-6-8-0-71"
       sodipodi:cx="120"
       sodipodi:cy="247.36218"
       sodipodi:rx="15"
       sodipodi:ry="15"
       d="m 135,247.36218 c 0,8.28427 -6.71573,15 -15,15 -8.28427,0 -15,-6.71573 -15,-15 0,-8.28427 6.71573,-15 15,-15 8.28427,0 15,6.71573 15,15 z" />
    <path
       transform="translate(425.2,169.8)"
       sodipodi:type="arc"
       style="fill:#2f3f70;fill-opacity:1;stroke:#0dab0d;stroke-opacity:1"
       id="path2989-6-8-0-6"
       sodipodi:cx="120"
       sodipodi:cy="247.36218"
       sodipodi:rx="15"
       sodipodi:ry="15"
       d="m 135,247.36218 c 0,8.28427 -6.71573,15 -15,15 -8.28427,0 -15,-6.71573 -15,-15 0,-8.28427 6.71573,-15 15,-15 8.28427,0 15,6.71573 15,15 z" />
    <path
       transform="translate(600.2,4.8000035)"
       sodipodi:type="arc"
       style="fill:#2f3f70;fill-opacity:1;stroke:#0dab0d;stroke-opacity:1"
       id="path2989-4-9-6"
       sodipodi:cx="120"
       sodipodi:cy="247.36218"
       sodipodi:rx="15"
       sodipodi:ry="15"
       d="m 135,247.36218 c 0,8.28427 -6.71573,15 -15,15 -8.28427,0 -15,-6.71573 -15,-15 0,-8.28427 6.71573,-15 15,-15 8.28427,0 15,6.71573 15,15 z" />
    <path
       transform="translate(600.2,169.8)"
       sodipodi:type="arc"
       style="fill:#2f3f70;fill-opacity:1;stroke:#0dab0d;stroke-opacity:1"
       id="path2989-4-9-6-9"
       sodipodi:cx="120"
       sodipodi:cy="247.36218"
       sodipodi:rx="15"
       sodipodi:ry="15"
       d="m 135,247.36218 c 0,8.28427 -6.71573,15 -15,15 -8.28427,0 -15,-6.71573 -15,-15 0,-8.28427 6.71573,-15 15,-15 8.28427,0 15,6.71573 15,15 z" />
    <path
       transform="translate(765.2,169.8)"
       sodipodi:type="arc"
       style="fill:#2f3f70;fill-opacity:1;stroke:#0dab0d;stroke-opacity:1"
       id="path2989-4-9-6-1"
       sodipodi:cx="120"
       sodipodi:cy="247.36218"
       sodipodi:rx="15"
       sodipodi:ry="15"
       d="m 135,247.36218 c 0,8.28427 -6.71573,15 -15,15 -8.28427,0 -15,-6.71573 -15,-15 0,-8.28427 6.71573,-15 15,-15 8.28427,0 15,6.71573 15,15 z" />
    <path
       transform="translate(765.2,4.8000035)"
       sodipodi:type="arc"
       style="fill:#2f3f70;fill-opacity:1;stroke:#0dab0d;stroke-opacity:1"
       id="path2989-4-9-6-8"
       sodipodi:cx="120"
       sodipodi:cy="247.36218"
       sodipodi:rx="15"
       sodipodi:ry="15"
       d="m 135,247.36218 c 0,8.28427 -6.71573,15 -15,15 -8.28427,0 -15,-6.71573 -15,-15 0,-8.28427 6.71573,-15 15,-15 8.28427,0 15,6.71573 15,15 z" />
    <path
       transform="translate(-89.8,4.8000005)"
       sodipodi:type="arc"
       style="fill:#2f3f70;fill-opacity:1;stroke:#0dab0d;stroke-opacity:1"
       id="path2989-4-9-6-10"
       sodipodi:cx="120"
       sodipodi:cy="247.36218"
       sodipodi:rx="15"
       sodipodi:ry="15"
       d="m 135,247.36218 c 0,8.28427 -6.71573,15 -15,15 -8.28427,0 -15,-6.71573 -15,-15 0,-8.28427 6.71573,-15 15,-15 8.28427,0 15,6.71573 15,15 z" />
    <path
       transform="translate(-89.8,169.8)"
       sodipodi:type="arc"
       style="fill:#2f3f70;fill-opacity:1;stroke:#0dab0d;stroke-opacity:1"
       id="path2989-4-9-6-97"
       sodipodi:cx="120"
       sodipodi:cy="247.36218"
       sodipodi:rx="15"
       sodipodi:ry="15"
       d="m 135,247.36218 c 0,8.28427 -6.71573,15 -15,15 -8.28427,0 -15,-6.71573 -15,-15 0,-8.28427 6.71573,-15 15,-15 8.28427,0 15,6.71573 15,15 z" />
    <path
       transform="translate(140.2,4.8000035)"
       sodipodi:type="arc"
       style="fill:#2f3f70;fill-opacity:1;stroke:#0dab0d;stroke-opacity:1"
       id="path2989-4-9-6-3"
       sodipodi:cx="120"
       sodipodi:cy="247.36218"
       sodipodi:rx="15"
       sodipodi:ry="15"
       d="m 135,247.36218 c 0,8.28427 -6.71573,15 -15,15 -8.28427,0 -15,-6.71573 -15,-15 0,-8.28427 6.71573,-15 15,-15 8.28427,0 15,6.71573 15,15 z" />
    <path
       transform="translate(140.2,169.8)"
       sodipodi:type="arc"
       style="fill:#2f3f70;fill-opacity:1;stroke:#0dab0d;stroke-opacity:1"
       id="path2989-4-9-6-91"
       sodipodi:cx="120"
       sodipodi:cy="247.36218"
       sodipodi:rx="15"
       sodipodi:ry="15"
       d="m 135,247.36218 c 0,8.28427 -6.71573,15 -15,15 -8.28427,0 -15,-6.71573 -15,-15 0,-8.28427 6.71573,-15 15,-15 8.28427,0 15,6.71573 15,15 z" />
  </g>
</svg>
