<?xml version="1.0" encoding="UTF-8" standalone="no"?>
<!DOCTYPE svg PUBLIC "-//W3C//DTD SVG 1.0//EN"
 "http://www.w3.org/TR/2001/REC-SVG-20010904/DTD/svg10.dtd" [
 <!ATTLIST svg xmlns:xlink CDATA #FIXED "http://www.w3.org/1999/xlink">
]>
<!-- Generated by Graphviz version 2.20.2 (Tue Mar &#160;2 19:03:41 UTC 2010)
     For user: (erublee) Ethan Rublee,,, -->
<!-- Title: state_machine Pages: 1 -->
<svg width="603pt" height="996pt"
 viewBox="0.00 0.00 603.00 996.00" xmlns="http://www.w3.org/2000/svg" xmlns:xlink="http://www.w3.org/1999/xlink">
<g id="graph0" class="graph" transform="scale(1 1) rotate(0) translate(4 992)">
<title>state_machine</title>
<polygon style="fill:white;stroke:white;" points="-4,4 -4,-992 599,-992 599,4 -4,4"/>
<!-- 0 -->
<g id="node1" class="node"><title>0</title>
<ellipse style="fill:none;stroke:black;" cx="225" cy="-933" rx="54.8957" ry="54.8957"/>
<text text-anchor="middle" x="225" y="-928.9" style="font-family:Times New Roman;font-size:14.00;">Allocated</text>
</g>
<!-- t01 -->
<g id="node6" class="node"><title>t01</title>
<polygon style="fill:green;stroke:green;" points="295,-842 155,-842 155,-806 295,-806 295,-842"/>
<text text-anchor="middle" x="225" y="-819.9" style="font-family:Times New Roman;font-size:14.00;">initialize():params</text>
</g>
<!-- 0&#45;&gt;t01 -->
<g id="edge8" class="edge"><title>0&#45;&gt;t01</title>
<path style="fill:none;stroke:black;" d="M225,-878C225,-869 225,-860 225,-852"/>
<polygon style="fill:black;stroke:black;" points="228.5,-852 225,-842 221.5,-852 228.5,-852"/>
</g>
<!-- 1 -->
<g id="node2" class="node"><title>1</title>
<ellipse style="fill:none;stroke:black;" cx="225" cy="-659" rx="111.181" ry="111.181"/>
<text text-anchor="middle" x="225" y="-654.9" style="font-family:Times New Roman;font-size:14.00;">Parameters Declared</text>
</g>
<!-- t12 -->
<g id="node7" class="node"><title>t12</title>
<polygon style="fill:green;stroke:green;" points="353,-512 97,-512 97,-476 353,-476 353,-512"/>
<text text-anchor="middle" x="225" y="-489.9" style="font-family:Times New Roman;font-size:14.00;">configure(params):(inputs,outputs)</text>
</g>
<!-- 1&#45;&gt;t12 -->
<g id="edge11" class="edge"><title>1&#45;&gt;t12</title>
<path style="fill:none;stroke:black;" d="M225,-548C225,-538 225,-530 225,-522"/>
<polygon style="fill:black;stroke:black;" points="228.5,-522 225,-512 221.5,-522 228.5,-522"/>
</g>
<!-- 3 -->
<g id="node3" class="node"><title>3</title>
<ellipse style="fill:none;stroke:black;" cx="225" cy="-377" rx="63.2343" ry="63.2343"/>
<text text-anchor="middle" x="225" y="-372.9" style="font-family:Times New Roman;font-size:14.00;">Configured</text>
</g>
<!-- t34 -->
<g id="node5" class="node"><title>t34</title>
<polygon style="fill:green;stroke:green;" points="319,-206 209,-206 209,-170 319,-170 319,-206"/>
<text text-anchor="middle" x="264" y="-183.9" style="font-family:Times New Roman;font-size:14.00;">destroy():void</text>
</g>
<!-- 3&#45;&gt;t34 -->
<g id="edge2" class="edge"><title>3&#45;&gt;t34</title>
<path style="fill:none;stroke:black;" d="M163,-365C80,-346 -51,-305 0,-242 25,-212 129,-197 199,-192"/>
<polygon style="fill:black;stroke:black;" points="199.398,-195.478 209,-191 198.701,-188.512 199.398,-195.478"/>
</g>
<!-- 3&#45;&gt;t12 -->
<g id="edge20" class="edge"><title>3&#45;&gt;t12</title>
<path style="fill:none;stroke:black;" d="M232,-440C231,-449 231,-458 231,-466"/>
<polygon style="fill:black;stroke:black;" points="227.512,-465.701 230,-476 234.478,-466.398 227.512,-465.701"/>
</g>
<!-- t33_0 -->
<g id="node8" class="node"><title>t33_0</title>
<polygon style="fill:green;stroke:green;" points="197,-278 9,-278 9,-242 197,-242 197,-278"/>
<text text-anchor="middle" x="103" y="-255.9" style="font-family:Times New Roman;font-size:14.00;">reconfigure(params):void</text>
</g>
<!-- 3&#45;&gt;t33_0 -->
<g id="edge14" class="edge"><title>3&#45;&gt;t33_0</title>
<path style="fill:none;stroke:black;" d="M176,-336C158,-320 138,-301 124,-286"/>
<polygon style="fill:black;stroke:black;" points="126.219,-283.221 117,-278 120.951,-287.831 126.219,-283.221"/>
</g>
<!-- t33_1 -->
<g id="node9" class="node"><title>t33_1</title>
<polygon style="fill:green;stroke:green;" points="481,-278 215,-278 215,-242 481,-242 481,-278"/>
<text text-anchor="middle" x="348" y="-255.9" style="font-family:Times New Roman;font-size:14.00;">process(params,inputs,outputs):void</text>
</g>
<!-- 3&#45;&gt;t33_1 -->
<g id="edge17" class="edge"><title>3&#45;&gt;t33_1</title>
<path style="fill:none;stroke:black;" d="M268,-330C284,-315 301,-298 316,-285"/>
<polygon style="fill:black;stroke:black;" points="318.779,-287.219 324,-278 314.169,-281.951 318.779,-287.219"/>
</g>
<!-- tstop_1 -->
<g id="node10" class="node"><title>tstop_1</title>
<polygon style="fill:yellow;stroke:yellow;" points="595,-278 499,-278 499,-242 595,-242 595,-278"/>
<text text-anchor="middle" x="547" y="-255.9" style="font-family:Times New Roman;font-size:14.00;">finish():void</text>
</g>
<!-- 3&#45;&gt;tstop_1 -->
<g id="edge5" class="edge"><title>3&#45;&gt;tstop_1</title>
<path style="fill:none;stroke:black;" d="M284,-355C343,-334 431,-302 490,-281"/>
<polygon style="fill:black;stroke:black;" points="490.62,-284.483 499,-278 488.406,-277.842 490.62,-284.483"/>
</g>
<!-- 4 -->
<g id="node4" class="node"><title>4</title>
<ellipse style="fill:none;stroke:black;" cx="264" cy="-67" rx="66.9043" ry="66.9043"/>
<text text-anchor="middle" x="264" y="-62.9" style="font-family:Times New Roman;font-size:14.00;">Deallocated</text>
</g>
<!-- t34&#45;&gt;4 -->
<g id="edge3" class="edge"><title>t34&#45;&gt;4</title>
<path style="fill:none;stroke:black;" d="M264,-170C264,-163 264,-154 264,-144"/>
<polygon style="fill:black;stroke:black;" points="267.5,-144 264,-134 260.5,-144 267.5,-144"/>
</g>
<!-- t01&#45;&gt;1 -->
<g id="edge9" class="edge"><title>t01&#45;&gt;1</title>
<path style="fill:none;stroke:black;" d="M225,-806C225,-799 225,-790 225,-780"/>
<polygon style="fill:black;stroke:black;" points="228.5,-780 225,-770 221.5,-780 228.5,-780"/>
</g>
<!-- t12&#45;&gt;3 -->
<g id="edge12" class="edge"><title>t12&#45;&gt;3</title>
<path style="fill:none;stroke:black;" d="M220,-476C219,-469 219,-460 219,-450"/>
<polygon style="fill:black;stroke:black;" points="222.478,-449.602 218,-440 215.512,-450.299 222.478,-449.602"/>
</g>
<!-- t33_0&#45;&gt;3 -->
<g id="edge15" class="edge"><title>t33_0&#45;&gt;3</title>
<path style="fill:none;stroke:black;" d="M127,-278C141,-290 159,-307 175,-323"/>
<polygon style="fill:black;stroke:black;" points="173.169,-326.049 183,-330 177.779,-320.781 173.169,-326.049"/>
</g>
<!-- t33_1&#45;&gt;3 -->
<g id="edge18" class="edge"><title>t33_1&#45;&gt;3</title>
<path style="fill:none;stroke:black;" d="M334,-278C321,-292 301,-312 282,-330"/>
<polygon style="fill:black;stroke:black;" points="279.221,-327.781 274,-337 283.831,-333.049 279.221,-327.781"/>
</g>
<!-- tstop_1&#45;&gt;t34 -->
<g id="edge6" class="edge"><title>tstop_1&#45;&gt;t34</title>
<path style="fill:none;stroke:black;" d="M499,-245C496,-244 493,-243 490,-242 436,-227 374,-212 329,-202"/>
<polygon style="fill:black;stroke:black;" points="329.492,-198.529 319,-200 328.119,-205.393 329.492,-198.529"/>
</g>
</g>
</svg>
